<svg width="70" height="70" viewBox="0 0 70 70" fill="none" xmlns="http://www.w3.org/2000/svg">
<g clip-path="url(#clip0)">
<path d="M54.8313 23.4527V3.69134C54.8302 2.71268 54.4409 1.77443 53.7489 1.08241C53.0568 0.390384 52.1186 0.00109681 51.1399 -6.10352e-05H18.6917C17.713 0.00109681 16.7747 0.390384 16.0827 1.08241C15.3907 1.77443 15.0014 2.71268 15.0002 3.69134V23.4527C15.0006 23.9686 15.1094 24.4786 15.3197 24.9497C15.53 25.4208 15.837 25.8424 16.2209 26.187C15.837 26.5317 15.53 26.9533 15.3197 27.4244C15.1094 27.8955 15.0006 28.4055 15.0002 28.9214V62.3519C15.0014 63.3306 15.3907 64.2688 16.0827 64.9608C16.7747 65.6528 17.713 66.0421 18.6917 66.0433H19.1931V68.98C19.1931 69.2338 19.294 69.4773 19.4734 69.6567C19.6529 69.8362 19.8963 69.937 20.1502 69.937H26.9861C27.2399 69.937 27.4833 69.8362 27.6628 69.6567C27.8423 69.4773 27.9431 69.2338 27.9431 68.98V66.0433H41.8884V68.98C41.8884 69.2338 41.9893 69.4773 42.1688 69.6567C42.3482 69.8362 42.5917 69.937 42.8455 69.937H49.6814C49.9352 69.937 50.1787 69.8362 50.3581 69.6567C50.5376 69.4773 50.6384 69.2338 50.6384 68.98V66.0433H51.1399C52.1186 66.0421 53.0568 65.6528 53.7489 64.9608C54.4409 64.2688 54.8302 63.3306 54.8313 62.3519V28.9214C54.831 28.4055 54.7222 27.8955 54.5119 27.4244C54.3016 26.9533 53.9945 26.5317 53.6107 26.187C53.9945 25.8424 54.3016 25.4208 54.5119 24.9497C54.7222 24.4786 54.831 23.9686 54.8313 23.4527ZM26.0291 68.023H21.1072V66.0433H26.0291V68.023ZM48.7244 68.023H43.8025V66.0433H48.7244V68.023ZM52.9173 28.9214V62.3519C52.9167 62.8231 52.7293 63.2748 52.3961 63.608C52.0629 63.9412 51.6111 64.1286 51.1399 64.1292H18.6917C18.2204 64.1286 17.7687 63.9412 17.4355 63.608C17.1023 63.2748 16.9149 62.8231 16.9143 62.3519V28.9214C16.9149 28.4502 17.1023 27.9985 17.4355 27.6653C17.7687 27.3321 18.2204 27.1447 18.6917 27.1441H51.1399C51.6111 27.1447 52.0629 27.3321 52.3961 27.6653C52.7293 27.9985 52.9167 28.4502 52.9173 28.9214ZM18.6917 25.23C18.2204 25.2294 17.7687 25.042 17.4355 24.7088C17.1023 24.3756 16.9149 23.9239 16.9143 23.4527V3.69134C16.9149 3.22014 17.1023 2.7684 17.4355 2.43521C17.7687 2.10202 18.2204 1.91458 18.6917 1.914H51.1399C51.6111 1.91458 52.0629 2.10202 52.3961 2.43521C52.7293 2.7684 52.9167 3.22014 52.9173 3.69134V23.4527C52.9167 23.9239 52.7293 24.3756 52.3961 24.7088C52.0629 25.042 51.6111 25.2294 51.1399 25.23H18.6917Z" fill="white"/>
<path d="M48.4852 6.93546H44.9305C44.6767 6.93546 44.4333 7.03628 44.2538 7.21576C44.0743 7.39524 43.9735 7.63867 43.9735 7.89249V19.3769C43.9735 19.6307 44.0743 19.8741 44.2538 20.0536C44.4333 20.2331 44.6767 20.3339 44.9305 20.3339H48.4852C48.739 20.3339 48.9825 20.2331 49.162 20.0536C49.3414 19.8741 49.4423 19.6307 49.4423 19.3769V7.89249C49.4423 7.63867 49.3414 7.39524 49.162 7.21576C48.9825 7.03628 48.739 6.93546 48.4852 6.93546ZM47.5282 18.4198H45.8876V8.84952H47.5282V18.4198Z" fill="white"/>
<path d="M44.9305 44.1646H48.4852C48.739 44.1646 48.9825 44.0637 49.162 43.8843C49.3414 43.7048 49.4423 43.4614 49.4423 43.2075V31.7231C49.4423 31.4693 49.3414 31.2259 49.162 31.0464C48.9825 30.8669 48.739 30.7661 48.4852 30.7661H44.9305C44.6767 30.7661 44.4333 30.8669 44.2538 31.0464C44.0743 31.2259 43.9735 31.4693 43.9735 31.7231V43.2075C43.9735 43.4614 44.0743 43.7048 44.2538 43.8843C44.4333 44.0637 44.6767 44.1646 44.9305 44.1646ZM45.8876 32.6802H47.5282V42.2505H45.8876V32.6802Z" fill="white"/>
</g>
<defs>
<clipPath id="clip0">
<rect width="70" height="70" fill="white" transform="translate(0.000244141)"/>
</clipPath>
</defs>
</svg>
