<svg width="70" height="70" viewBox="0 0 70 70" fill="none" xmlns="http://www.w3.org/2000/svg">
<g clip-path="url(#clip0)">
<path d="M50.1669 32.6666H49.0002V30.3333H50.1669C52.0999 30.3333 53.6669 28.7663 53.6669 26.8333V6.78528C55.4859 6.14463 56.4411 4.15065 55.8003 2.33167C55.3074 0.932258 53.984 -0.00282549 52.5002 -5.46594e-05H17.5002C15.5717 -0.00370049 14.0055 1.55672 14.0018 3.48521C13.9989 4.96892 14.9342 6.29236 16.3336 6.78528V26.8333C16.3336 28.7663 17.9006 30.3333 19.8336 30.3333H21.0002V32.6666H19.8336C16.6136 32.6704 14.004 35.2799 14.0002 38.4999C14.0002 39.1442 14.5226 39.6666 15.1669 39.6666C15.144 47.4627 19.7169 54.5401 26.8336 57.7231V68.8333C26.8336 69.4775 27.356 69.9999 28.0002 69.9999H42.0002C42.6445 69.9999 43.1669 69.4775 43.1669 68.8333V57.7231C50.2826 54.539 54.855 47.4623 54.8336 39.6666C55.4779 39.6666 56.0002 39.1442 56.0002 38.4999C55.9965 35.2799 53.3869 32.6704 50.1669 32.6666ZM16.3336 3.49994C16.3336 2.85565 16.856 2.33328 17.5002 2.33328H52.5002C53.1445 2.33328 53.6669 2.85565 53.6669 3.49994C53.6669 4.14424 53.1445 4.66661 52.5002 4.66661H17.5002C16.856 4.66661 16.3336 4.14424 16.3336 3.49994ZM19.8336 27.9999C19.1893 27.9999 18.6669 27.4776 18.6669 26.8333V6.99994H51.3336V26.8333C51.3336 27.4776 50.8112 27.9999 50.1669 27.9999H19.8336ZM46.6669 30.3333V32.6666H23.3336V30.3333H46.6669ZM29.1669 67.6666V58.6273L29.2754 58.6564C29.3921 58.6914 29.5087 58.7183 29.6254 58.7509C30.0524 58.8723 30.4836 58.9789 30.9192 59.0706C31.1281 59.1149 31.3381 59.1511 31.5481 59.1873C31.9086 59.2503 32.2714 59.3039 32.6366 59.3448C32.8582 59.3716 33.0776 59.3996 33.3016 59.4183C33.7768 59.4579 34.2531 59.4805 34.7307 59.4859C34.8194 59.4859 34.9057 59.4988 34.9944 59.4988C35.0831 59.4988 35.1706 59.4871 35.2592 59.4859C35.7368 59.4805 36.2128 59.4579 36.6872 59.4183C36.9112 59.3996 37.1329 59.3704 37.3557 59.3448C37.7174 59.3016 38.0767 59.2503 38.4349 59.1884C38.6484 59.1511 38.8619 59.1126 39.0742 59.0718C39.4989 58.9843 39.9177 58.8781 40.3331 58.7614C40.4626 58.7253 40.5944 58.6961 40.7239 58.6576C40.7577 58.6471 40.7939 58.6401 40.8277 58.6296L40.8336 67.6666H29.1669ZM41.5569 55.8891C38.4167 57.1554 34.9773 57.4868 31.6531 56.8434C30.5517 56.6315 29.4743 56.3107 28.4366 55.8856C21.8118 53.2313 17.4775 46.8032 17.5002 39.6666H52.5002C52.5224 46.806 48.185 53.2358 41.5569 55.8891ZM16.5331 37.3333C17.0293 35.9359 18.3507 35.0017 19.8336 34.9999H50.1669C51.6497 35.0017 52.9711 35.9359 53.4674 37.3333H16.5331Z" fill="white"/>
<path d="M30.3337 10.5H26.619C25.9747 8.67751 23.9749 7.72245 22.1526 8.36688C20.3302 9.01132 19.375 11.0108 20.0193 12.8333C20.6636 14.6558 22.6634 15.6109 24.4858 14.9664C25.4825 14.6141 26.2665 13.83 26.6189 12.8333H30.3337C30.978 12.8333 31.5003 12.3109 31.5003 11.6667C31.5003 11.0224 30.978 10.5 30.3337 10.5ZM23.3337 12.8333C22.6894 12.8333 22.167 12.3109 22.167 11.6667C22.167 11.0224 22.6894 10.5 23.3337 10.5C23.978 10.5 24.5003 11.0224 24.5003 11.6667C24.5003 12.3109 23.978 12.8333 23.3337 12.8333Z" fill="white"/>
</g>
<defs>
<clipPath id="clip0">
<rect width="70" height="70" fill="white" transform="translate(0.000244141)"/>
</clipPath>
</defs>
</svg>
