<svg width="70" height="70" viewBox="0 0 70 70" fill="none" xmlns="http://www.w3.org/2000/svg">
<g clip-path="url(#clip0)">
<path d="M70.0004 19.833C69.9952 15.3248 66.3419 11.6715 61.8337 11.6664H26.8337C26.1174 11.6638 25.4042 11.7616 24.715 11.9569C24.2787 12.0619 12.7543 16.4065 5.92351 18.986H5.91418C4.58282 19.3576 3.37128 20.0697 2.39901 21.0522C0.854568 22.5782 -0.0100599 24.6619 0.000343688 26.833C0.00228033 29.7033 1.5121 32.3614 3.97634 33.833C1.51313 35.3057 0.00367491 37.9632 0.000343688 40.833C0.00490218 43.7041 1.51673 46.3618 3.98218 47.833C0.827047 49.7135 -0.682475 53.4705 0.294487 57.0112C1.27145 60.5519 4.494 63.0033 8.16701 62.9997H43.167C44.374 62.9987 45.5655 62.7276 46.6542 62.2064C46.6627 62.2069 46.6713 62.2069 46.6799 62.2064L65.4503 55.1562C68.131 53.8356 69.8737 51.1535 69.9913 48.1676C70.1088 45.1816 68.5824 42.3708 66.0138 40.8435C66.596 40.5061 67.1295 40.0908 67.5993 39.6092C69.1435 38.0848 70.0089 36.0029 70.0004 33.833C69.9901 30.9662 68.4811 28.3137 66.022 26.84C66.6016 26.5028 67.133 26.0888 67.6017 25.6092C69.145 24.0844 70.0095 22.0025 70.0004 19.833ZM25.3578 14.1992C25.8382 14.0649 26.3349 13.9978 26.8337 13.9997H61.8337C65.0537 14.0036 67.6632 16.613 67.667 19.833C67.6742 21.3813 67.0572 22.8671 65.9555 23.9549C65.5591 24.3674 65.0951 24.7091 64.5835 24.9652C64.5205 24.999 64.4669 25.0305 64.4073 25.0609C62.8335 25.6442 60.0627 26.6849 55.7682 28.2972L50.5835 30.2444C51.749 27.7166 51.5458 24.7692 50.0444 22.4253C48.543 20.0814 45.9505 18.6645 43.167 18.6664H13.3843C19.1932 16.4789 24.883 14.3497 25.3578 14.1992ZM2.33368 26.833C2.32702 25.282 2.94617 23.7939 4.05101 22.7054C4.7562 21.9894 5.64055 21.4757 6.61184 21.2179C6.64101 21.2085 6.67484 21.198 6.70868 21.1852C7.18471 21.0605 7.67492 20.9981 8.16701 20.9997H43.167C46.3871 21.0036 48.9965 23.613 49.0003 26.833C48.9919 29.0157 47.7738 31.0137 45.8375 32.0212C45.8034 32.0343 45.7699 32.0491 45.7372 32.0655C44.9394 32.4646 44.059 32.6704 43.167 32.6664H8.16701C4.94695 32.6625 2.33753 30.0531 2.33368 26.833ZM2.33368 40.833C2.33946 37.6138 4.94775 35.0055 8.16701 34.9997H43.167C46.3871 35.0036 48.9965 37.613 49.0003 40.833C48.9919 43.0157 47.7738 45.0137 45.8375 46.0212C45.8034 46.0343 45.7699 46.0491 45.7372 46.0655C44.9394 46.4646 44.059 46.6704 43.167 46.6664H8.16701C4.94695 46.6625 2.33753 44.0531 2.33368 40.833ZM8.16701 60.6664C4.94535 60.6664 2.33368 58.0547 2.33368 54.833C2.33368 51.6114 4.94535 48.9997 8.16701 48.9997H43.167C46.3887 48.9997 49.0003 51.6114 49.0003 54.833C49.0003 58.0547 46.3887 60.6664 43.167 60.6664H8.16701ZM67.667 47.833C67.6741 49.381 67.0576 50.8666 65.9567 51.9549C65.5372 52.3796 65.0553 52.7376 64.5275 53.0165L50.5753 58.249C52.3139 54.5128 50.9795 50.0667 47.4708 47.9054L62.8708 42.128C65.6376 42.6217 67.656 45.0226 67.667 47.833ZM67.667 33.833C67.6742 35.3813 67.0572 36.8671 65.9555 37.9549C65.5591 38.3674 65.0951 38.7091 64.5835 38.9652C64.5193 39.0002 64.4587 39.0317 64.405 39.062L50.5823 44.2455C52.3102 40.508 50.9744 36.0687 47.4708 33.9054L56.5837 30.4824C59.246 29.4825 61.3145 28.7055 62.8837 28.1187C65.6456 28.6241 67.6556 31.0253 67.667 33.833Z" fill="white"/>
<path d="M45.5006 26.833C45.5006 26.1887 44.9783 25.6663 44.3339 25.6663H7.00059C6.35626 25.6663 5.83392 26.1887 5.83392 26.833C5.83392 27.4773 6.35626 27.9997 7.00059 27.9997H44.3339C44.9783 27.9997 45.5006 27.4773 45.5006 26.833Z" fill="white"/>
<path d="M45.5006 40.8331C45.5006 40.1888 44.9783 39.6664 44.3339 39.6664H7.00059C6.35626 39.6664 5.83392 40.1888 5.83392 40.8331C5.83392 41.4774 6.35626 41.9997 7.00059 41.9997H44.3339C44.9783 41.9997 45.5006 41.4774 45.5006 40.8331Z" fill="white"/>
<path d="M44.3339 53.6665H7.00059C6.35626 53.6665 5.83392 54.1888 5.83392 54.8332C5.83392 55.4775 6.35626 55.9998 7.00059 55.9998H44.3339C44.9783 55.9998 45.5006 55.4775 45.5006 54.8332C45.5006 54.1888 44.9783 53.6665 44.3339 53.6665Z" fill="white"/>
<path d="M11.667 2.33319C11.0227 2.33319 10.5004 2.85553 10.5004 3.49986V5.83319C10.5004 6.47752 11.0227 6.99986 11.667 6.99986C12.3114 6.99986 12.8337 6.47752 12.8337 5.83319V3.49986C12.8337 2.85553 12.3114 2.33319 11.667 2.33319Z" fill="white"/>
<path d="M10.5004 12.8334C10.5004 13.4777 11.0227 14.0001 11.667 14.0001C12.3114 14.0001 12.8337 13.4777 12.8337 12.8334V10.5C12.8337 9.85571 12.3114 9.33337 11.667 9.33337C11.0227 9.33337 10.5004 9.85571 10.5004 10.5V12.8334Z" fill="white"/>
<path d="M9.33392 6.99982H7.00059C6.35626 6.99982 5.83392 7.52215 5.83392 8.16649C5.83392 8.81082 6.35626 9.33316 7.00059 9.33316H9.33392C9.97825 9.33316 10.5006 8.81082 10.5006 8.16649C10.5006 7.52215 9.97825 6.99982 9.33392 6.99982Z" fill="white"/>
<path d="M14.0005 9.33316H16.3338C16.9781 9.33316 17.5005 8.81082 17.5005 8.16649C17.5005 7.52215 16.9781 6.99982 16.3338 6.99982H14.0005C13.3561 6.99982 12.8338 7.52215 12.8338 8.16649C12.8338 8.81082 13.3561 9.33316 14.0005 9.33316Z" fill="white"/>
<path d="M67.9084 63.9253C67.4506 63.4831 66.7229 63.4895 66.2729 63.9395C65.8229 64.3895 65.8166 65.1172 66.2587 65.5749L68.0087 67.325C68.4665 67.7671 69.1941 67.7608 69.6442 67.3107C70.0942 66.8607 70.1005 66.1331 69.6584 65.6753L67.9084 63.9253Z" fill="white"/>
<path d="M62.759 62.0748C63.2167 62.5169 63.9444 62.5106 64.3944 62.0606C64.8444 61.6105 64.8508 60.8829 64.4086 60.4251L62.6586 58.6751C62.2008 58.233 61.4732 58.2393 61.0232 58.6893C60.5731 59.1393 60.5668 59.867 61.009 60.3248L62.759 62.0748Z" fill="white"/>
<path d="M61.0088 67.3249C61.4643 67.7804 62.2028 67.7804 62.6584 67.3249L64.4084 65.5749C64.8506 65.1172 64.8442 64.3895 64.3942 63.9395C63.9442 63.4895 63.2165 63.4831 62.7588 63.9253L61.0088 65.6753C60.5533 66.1309 60.5533 66.8694 61.0088 67.3249Z" fill="white"/>
<path d="M68.0086 58.6751L66.2586 60.4251C65.9553 60.718 65.8337 61.1518 65.9405 61.5597C66.0472 61.9676 66.3658 62.2861 66.7737 62.3929C67.1816 62.4997 67.6153 62.378 67.9083 62.0748L69.6583 60.3248C70.1004 59.867 70.0941 59.1393 69.644 58.6893C69.194 58.2393 68.4664 58.233 68.0086 58.6751Z" fill="white"/>
</g>
<defs>
<clipPath id="clip0">
<rect width="70" height="70" fill="white" transform="translate(0.000244141)"/>
</clipPath>
</defs>
</svg>
