<svg width="70" height="70" viewBox="0 0 70 70" fill="none" xmlns="http://www.w3.org/2000/svg">
<g clip-path="url(#clip0)">
<path d="M68.8336 15.1667H43.1669C42.5226 15.1667 42.0002 15.689 42.0002 16.3333V44.3333H36.1669V43.1667H37.3336C37.9779 43.1667 38.5002 42.6443 38.5002 42C38.5002 41.3557 37.9779 40.8333 37.3336 40.8333H25.6669C25.0226 40.8333 24.5002 41.3557 24.5002 42C24.5002 42.6443 25.0226 43.1667 25.6669 43.1667H26.8336V44.3333H15.1669V43.1667H16.3336C16.9779 43.1667 17.5002 42.6443 17.5002 42C17.5002 41.3557 16.9779 40.8333 16.3336 40.8333H4.66691C4.02262 40.8333 3.50024 41.3557 3.50024 42C3.50024 42.6443 4.02262 43.1667 4.66691 43.1667H5.83358V44.3333H1.16691C0.522619 44.3333 0.000244141 44.8557 0.000244141 45.5V68.8333C0.000244141 69.4776 0.522619 70 1.16691 70H68.8336C69.4779 70 70.0002 69.4776 70.0002 68.8333V16.3333C70.0002 15.689 69.4779 15.1667 68.8336 15.1667ZM29.1669 43.1667H33.8336V44.3333H29.1669V43.1667ZM8.16691 43.1667H12.8336V44.3333H8.16691V43.1667ZM18.6669 67.6667H2.33358V53.6667H18.6669V67.6667ZM18.6669 51.3333H2.33358V46.6667H18.6669V51.3333ZM42.0002 67.6667H21.0002V46.6667H42.0002V67.6667ZM67.6669 67.6667H44.3336V36.1667H67.6669V67.6667ZM67.6669 33.8333H44.3336V17.5H67.6669V33.8333Z" fill="white"/>
<path d="M24.5003 65.3333H38.5003C39.1446 65.3333 39.667 64.811 39.667 64.1667V50.1667C39.667 49.5224 39.1446 49 38.5003 49H24.5003C23.856 49 23.3336 49.5224 23.3336 50.1667V64.1667C23.3336 64.811 23.856 65.3333 24.5003 65.3333ZM25.667 51.3333H37.3336V63H25.667V51.3333Z" fill="white"/>
<path d="M46.6669 32.6667C47.3112 32.6667 47.8336 32.1443 47.8336 31.5V26.8333C47.8336 26.189 47.3112 25.6667 46.6669 25.6667C46.0226 25.6667 45.5002 26.189 45.5002 26.8333V31.5C45.5002 32.1443 46.0226 32.6667 46.6669 32.6667Z" fill="white"/>
<path d="M46.6669 44.3333C47.3112 44.3333 47.8336 43.811 47.8336 43.1667V38.5C47.8336 37.8557 47.3112 37.3333 46.6669 37.3333C46.0226 37.3333 45.5002 37.8557 45.5002 38.5V43.1667C45.5002 43.811 46.0226 44.3333 46.6669 44.3333Z" fill="white"/>
<path d="M2.75073 20.7287C2.96102 20.9043 3.22629 21.0003 3.50031 21H38.5003C39.1446 21.0009 39.6677 20.4794 39.6687 19.8351C39.6692 19.5612 39.5731 19.2958 39.3975 19.0855L27.7308 5.0855C27.5087 4.81965 27.18 4.66623 26.8336 4.66667H25.667V1.16667C25.667 0.522375 25.1446 0 24.5003 0H17.5003C16.856 0 16.3336 0.522375 16.3336 1.16667V4.66667H15.167C14.8206 4.66623 14.4919 4.81965 14.2698 5.0855L2.60314 19.0855C2.19014 19.58 2.25621 20.3158 2.75073 20.7287ZM18.667 2.33333H23.3336V4.66667H18.667V2.33333ZM15.7141 7H26.2865L36.0095 18.6667H5.99114L15.7141 7Z" fill="white"/>
</g>
<defs>
<clipPath id="clip0">
<rect width="70" height="70" fill="white" transform="translate(0.000244141)"/>
</clipPath>
</defs>
</svg>
