<svg width="70" height="70" viewBox="0 0 70 70" fill="none" xmlns="http://www.w3.org/2000/svg">
<path d="M66.9818 36.7881L63.893 27.2846C62.3366 22.4955 59.5518 18.1657 55.8395 14.7633C52.1273 11.3606 47.5717 8.9626 42.6653 7.82825L35.8827 6.26009C35.8812 6.25982 17.0623 2.16551 17.0623 2.16551C16.5072 2.04438 15.9609 2.39656 15.8402 2.95068C15.7196 3.50508 16.0711 4.05222 16.6253 4.17281L35.4196 8.26178C35.4198 8.26178 35.4591 8.27094 35.4591 8.27094C39.747 9.21567 42.9181 12.7708 43.3537 17.1265C43.8863 22.4508 45.0399 28.3707 46.783 34.722C49.102 43.1724 48.9889 50.2363 48.4858 54.6737C48.0903 58.1632 47.3986 60.6199 47.0433 61.7195H33.3276C32.7602 61.7195 32.3004 62.1793 32.3004 62.7467C32.3004 63.3141 32.7602 63.7738 33.3276 63.7738H47.1903L49.3644 67.4193C49.4546 67.5706 49.4054 67.7037 49.3679 67.7694C49.3306 67.8352 49.2416 67.9455 49.0653 67.9455H5.40691C5.23068 67.9455 5.14168 67.8352 5.10422 67.7694C5.06689 67.7038 5.01767 67.5707 5.10791 67.4194L7.28201 63.7738H29.2188C29.7861 63.7738 30.2459 63.3141 30.2459 62.7467C30.2459 62.1793 29.7861 61.7195 29.2188 61.7195H7.45878C5.80244 56.239 5.17094 51.3613 5.47978 46.4321C5.7673 41.8426 6.83111 37.776 7.95712 33.4707C9.35944 28.1089 10.8096 22.5647 10.9548 15.4027C11.0353 11.4391 8.62089 6.27349 6.58119 2.63801C6.44242 2.29211 6.62644 2.0467 6.99804 2.07842L12.612 3.29986C13.1672 3.42099 13.7135 3.06867 13.8341 2.51469C13.9547 1.96029 13.6032 1.41315 13.0489 1.29256L7.43486 0.0705721C5.45887 -0.437063 3.7261 1.90137 4.78949 3.64275C6.35697 6.43687 8.97581 11.6747 8.90103 15.3606C8.76062 22.2797 7.34175 27.7044 5.96965 32.9505C3.72281 41.5408 1.60012 49.6607 5.58205 62.6134L3.34356 66.3671C2.89512 67.1192 2.88541 68.0226 3.31785 68.784C3.75043 69.5454 4.53123 70 5.40691 70H49.0655C49.941 70 50.722 69.5455 51.1544 68.784C51.587 68.0228 51.5773 67.1191 51.1288 66.367L48.9048 62.6377C49.2604 61.5959 50.0627 58.9351 50.517 54.9942C51.0513 50.3592 51.1811 42.9853 48.7643 34.1781C47.2169 28.5396 46.1449 23.2576 45.5677 18.4479C49.9621 19.9807 53.4733 23.3905 55.1168 27.8016C55.5719 29.062 57.5237 28.3223 57.042 27.0844C55.0678 21.7856 50.7098 17.7658 45.3035 16.21C44.9135 13.7629 43.8013 11.5566 42.1745 9.82324L42.2028 9.82981C46.7645 10.8845 51 13.1142 54.4515 16.2776C57.9031 19.441 60.4923 23.4668 61.9394 27.9196L65.0282 37.423C65.2222 38.0198 65.1218 38.6533 64.753 39.1611C64.3841 39.6689 63.8128 39.96 63.1852 39.96C62.3801 39.96 61.6503 39.453 61.3693 38.6986L58.3087 30.4834C58.1105 29.9518 57.5185 29.6815 56.9875 29.8794C56.4558 30.0775 56.1854 30.6691 56.3835 31.2005L59.4441 39.4155C60.0231 40.9699 61.5266 42.0141 63.1852 42.0141C64.478 42.0141 65.6553 41.4142 66.4152 40.3683C67.1745 39.3228 67.3812 38.0177 66.9818 36.7881Z" fill="white"/>
<path d="M32.5224 50.8917C35.0059 50.8917 37.0263 48.8713 37.0263 46.3878V23.4679C37.0263 20.9843 35.0059 18.9638 32.5224 18.9638C30.0389 18.9638 28.0185 20.9843 28.0185 23.4679V46.3878C28.0184 48.8713 30.0389 50.8917 32.5224 50.8917ZM32.5224 21.0146C33.8751 21.0146 34.9755 22.1152 34.9755 23.4679V46.3878C34.9755 47.7405 33.875 48.8409 32.5224 48.8409C31.1697 48.8409 30.0693 47.7403 30.0693 46.3878V45.3031H31.759C32.3254 45.3031 32.7844 44.8441 32.7844 44.2777C32.7844 43.7112 32.3254 43.2523 31.759 43.2523H30.0693V39.5219H31.759C32.3254 39.5219 32.7844 39.063 32.7844 38.4965C32.7844 37.9301 32.3254 37.4711 31.759 37.4711H30.0693V33.7408H31.759C32.3254 33.7408 32.7844 33.2818 32.7844 32.7154C32.7844 32.149 32.3254 31.69 31.759 31.69H30.0693V27.9596H31.759C32.3254 27.9596 32.7844 27.5007 32.7844 26.9342C32.7844 26.3678 32.3254 25.9089 31.759 25.9089H30.0693V23.4679C30.0691 22.1152 31.1697 21.0146 32.5224 21.0146Z" fill="white"/>
</svg>
