<svg width="70" height="70" viewBox="0 0 70 70" fill="none" xmlns="http://www.w3.org/2000/svg">
<g clip-path="url(#clip0)">
<path d="M35.0004 0C20.2047 0 8.16699 12.6654 8.16699 28.2334C8.16699 43.4898 33.1138 68.5966 34.1755 69.6594C34.403 69.8857 34.7018 70.0001 35.0004 70.0001C35.2991 70.0001 35.5977 69.8858 35.8252 69.6583C36.8868 68.5967 61.8337 43.49 61.8337 28.2335C61.8337 12.6654 49.7961 0 35.0004 0ZM35.0004 67.1627C30.6382 62.6384 10.5004 41.0491 10.5004 28.2334C10.5004 13.9521 21.4916 2.33338 35.0004 2.33338C48.5091 2.33338 59.5004 13.9521 59.5004 28.2334C59.5004 41.0434 39.3614 62.6371 35.0004 67.1627Z" fill="white"/>
<path d="M35.0004 5.83337C23.4212 5.83337 14.0004 15.2543 14.0004 26.8334C14.0004 38.4125 23.4212 47.8334 35.0004 47.8334C46.5795 47.8334 56.0004 38.4125 56.0004 26.8334C56.0004 15.2543 46.5795 5.83337 35.0004 5.83337ZM35.0004 45.5C24.7068 45.5 16.3337 37.1257 16.3337 26.8334C16.3337 16.5411 24.7068 8.16662 35.0004 8.16662C45.2939 8.16662 53.667 16.5409 53.667 26.8332C53.667 37.1256 45.2939 45.5 35.0004 45.5Z" fill="white"/>
<path d="M35.0004 57.1666C34.3564 57.1666 33.8337 57.6892 33.8337 58.3332V68.8332C33.8337 69.4771 34.3564 69.9998 35.0004 69.9998C35.6443 69.9998 36.167 69.4771 36.167 68.8332V58.3332C36.167 57.6892 35.6443 57.1666 35.0004 57.1666Z" fill="white"/>
<path d="M37.3337 18.6667H32.6671C32.0232 18.6667 31.5005 19.1894 31.5005 19.8333V24.5001C31.5005 25.144 32.0232 25.6667 32.6671 25.6667H37.3337C39.2634 25.6667 40.8337 24.0963 40.8337 22.1667C40.8337 20.237 39.2634 18.6667 37.3337 18.6667ZM37.3337 23.3334H33.8337V21.0001H37.3337C37.9777 21.0001 38.5004 21.5238 38.5004 22.1667C38.5004 22.8095 37.9777 23.3334 37.3337 23.3334Z" fill="white"/>
<path d="M37.3335 14H28.0001C27.3562 14 26.8335 14.5227 26.8335 15.1666V38.5C26.8335 39.1439 27.3562 39.6666 28.0001 39.6666H32.6667C33.3107 39.6666 33.8334 39.1439 33.8334 38.5V30.3334H37.3334C41.8367 30.3334 45.5 26.67 45.5 22.1668C45.5 17.6635 41.8367 14 37.3335 14ZM37.3335 28H32.6669C32.0229 28 31.5003 28.5227 31.5003 29.1666V37.3332H29.1669V16.3332H37.3335C40.5499 16.3332 43.1669 18.95 43.1669 22.1666C43.1667 25.3832 40.5499 28 37.3335 28Z" fill="white"/>
<path d="M68.8339 67.6666H64.1672C63.5233 67.6666 63.0006 68.1892 63.0006 68.8332C63.0006 69.4771 63.5233 69.9998 64.1672 69.9998H68.8339C69.4778 69.9998 70.0005 69.4771 70.0005 68.8332C70.0005 68.1892 69.4778 67.6666 68.8339 67.6666Z" fill="white"/>
<path d="M28.0002 67.6666H1.16687C0.52292 67.6666 0.000244141 68.1892 0.000244141 68.8332C0.000244141 69.4771 0.52292 69.9999 1.16687 69.9999H28.0002C28.6442 69.9999 29.1669 69.4772 29.1669 68.8333C29.1669 68.1894 28.6442 67.6666 28.0002 67.6666Z" fill="white"/>
<path d="M56.0002 67.6666H42.0002C41.3563 67.6666 40.8336 68.1892 40.8336 68.8332C40.8336 69.4771 41.3563 69.9999 42.0002 69.9999H56.0002C56.6442 69.9999 57.1669 69.4772 57.1669 68.8333C57.1669 68.1894 56.6442 67.6666 56.0002 67.6666Z" fill="white"/>
</g>
<defs>
<clipPath id="clip0">
<rect width="70" height="70" fill="white" transform="translate(0.000244141)"/>
</clipPath>
</defs>
</svg>
