<svg width="70" height="70" viewBox="0 0 70 70" fill="none" xmlns="http://www.w3.org/2000/svg">
<g clip-path="url(#clip0)">
<path d="M69.9996 32.6673C70.0009 29.5908 68.6518 26.6689 66.3094 24.6745C67.2022 23.2183 67.6721 21.5422 67.6663 19.8341C67.6601 15.1016 64.1177 11.1203 59.418 10.5639C59.4726 10.1563 59.5 9.74551 59.4997 9.33426C59.5118 4.19124 55.3524 0.0122954 50.2094 0.000191411C47.1831 -0.00695432 44.342 1.45705 42.5915 3.92568C39.6206 -0.266971 33.8134 -1.25731 29.6208 1.71356C28.7639 2.3208 28.0159 3.06877 27.4087 3.92568C24.4213 -0.265513 18.6021 -1.24142 14.4109 1.74579C11.6 3.74922 10.1268 7.14228 10.5821 10.5639C5.88238 11.1203 2.34 15.1016 2.33387 19.8341C2.32804 21.5422 2.79791 23.2183 3.69069 24.6745C-0.722896 28.4358 -1.25168 35.063 2.5096 39.4766C2.87126 39.9011 3.26632 40.296 3.69069 40.6576C2.79747 42.1146 2.3276 43.7914 2.33387 45.5004C2.33971 50.6526 6.51485 54.8278 11.6671 54.8336H18.667V67.6667H15.167C14.5227 67.6667 14.0004 68.1891 14.0004 68.8334C14.0004 69.4777 14.5227 70 15.167 70H54.8331C55.4774 70 55.9998 69.4777 55.9998 68.8334C55.9998 68.1891 55.4774 67.6667 54.8331 67.6667H51.3332V54.8336H58.3331C63.4853 54.8278 67.6604 50.6526 67.6663 45.5004C67.6721 43.7923 67.2022 42.1162 66.3094 40.66C68.6518 38.6656 70.0007 35.7436 69.9996 32.6673ZM11.6671 52.4898C7.80677 52.486 4.6768 49.3607 4.66717 45.5004C4.66265 43.9138 5.20339 42.3738 6.19898 41.1383C6.60104 40.6349 6.51894 39.9008 6.01553 39.4986C5.99117 39.479 5.96594 39.4605 5.93999 39.4432C2.19781 36.9255 1.20499 31.851 3.72248 28.1087C4.31149 27.2333 5.06442 26.4802 5.93999 25.8914C6.47402 25.531 6.61489 24.8058 6.2544 24.2718C6.2369 24.2458 6.21838 24.2207 6.19898 24.1962C5.20339 22.9607 4.66265 21.4208 4.66717 19.8341C4.67096 15.9697 7.80269 12.838 11.6671 12.8342L11.9692 12.8505C12.3465 12.8694 12.7086 12.7003 12.9364 12.3991C13.1683 12.1016 13.2409 11.7099 13.1312 11.3491C12.0384 7.64087 14.1586 3.74878 17.8669 2.65592C21.1635 1.6844 24.6775 3.24975 26.1604 6.34997C26.1604 6.36164 26.1604 6.37331 26.1522 6.38497C26.0068 6.82232 25.8944 7.27002 25.8162 7.72429C25.8022 7.80245 25.7917 7.88179 25.78 7.95762C25.6405 8.8189 25.6298 9.69607 25.7485 10.5604C21.0475 11.1171 17.5047 15.1001 17.5003 19.8341C17.4945 21.5422 17.9644 23.2183 18.8571 24.6745C18.8361 24.6932 18.8186 24.713 18.7976 24.7317L13.3669 19.301C12.9034 18.8534 12.1648 18.8662 11.7172 19.3297C11.2806 19.7818 11.2806 20.4985 11.7172 20.9506L17.2145 26.4478C13.9445 30.8814 14.662 37.0892 18.8571 40.66C18.407 41.3942 18.0628 42.1883 17.8351 43.0189L13.6585 38.8423C13.1951 38.3946 12.4566 38.4075 12.0089 38.8709C11.5723 39.323 11.5723 40.0398 12.0089 40.492L17.526 46.0091C17.5353 46.1712 17.5377 46.3346 17.5552 46.4932C17.5668 46.6029 17.589 46.7079 17.6041 46.8152C17.6345 47.0311 17.6648 47.2457 17.7103 47.4569C17.7371 47.5829 17.7745 47.7042 17.806 47.8279C17.8538 48.0145 17.9016 48.2024 17.9611 48.3844C18.0031 48.5139 18.0533 48.6375 18.1011 48.7647C18.1653 48.935 18.2295 49.1065 18.3041 49.2722C18.3601 49.3982 18.4208 49.5207 18.4826 49.6432C18.562 49.803 18.6436 49.9605 18.7311 50.1098C18.8 50.2265 18.8735 50.3432 18.9481 50.4598C19.0415 50.608 19.1371 50.7527 19.2386 50.8938C19.3191 51.0105 19.4031 51.119 19.4895 51.2287C19.5956 51.3663 19.7065 51.4982 19.8208 51.6288C19.913 51.7338 20.0063 51.8376 20.1019 51.938C20.2186 52.064 20.3481 52.1841 20.4764 52.3031C20.5406 52.3638 20.6001 52.4315 20.6666 52.4898H11.6671ZM33.8334 67.6667H21.0003V54.8336H33.8334V67.6667ZM35.0001 15.1675C34.3558 15.1675 33.8334 15.6899 33.8334 16.3342V24.601L28.5333 19.301C28.0699 18.8534 27.3312 18.8662 26.8837 19.3297C26.4471 19.7818 26.4471 20.4985 26.8837 20.9506L33.8334 27.9003V43.8508L28.825 38.8423C28.3615 38.3946 27.623 38.4075 27.1753 38.8709C26.7387 39.323 26.7387 40.0398 27.1753 40.492L33.8334 47.15V52.5003H26.8335C22.9691 52.4965 19.8374 49.3648 19.8336 45.5004C19.8291 43.9138 20.3698 42.3738 21.3654 41.1383C21.7675 40.6349 21.6854 39.9008 21.182 39.4986C21.1576 39.479 21.1324 39.4605 21.1064 39.4432C17.3643 36.9255 16.3714 31.851 18.8889 28.1087C19.4779 27.2333 20.2309 26.4802 21.1064 25.8914C21.6405 25.531 21.7813 24.8058 21.4208 24.2718C21.4033 24.2458 21.3848 24.2207 21.3654 24.1962C20.3698 22.9607 19.8291 21.4208 19.8336 19.8341C19.8374 15.9697 22.9691 12.838 26.8335 12.8342L27.1357 12.8505C27.5134 12.8715 27.8764 12.7021 28.1028 12.3991C28.3347 12.1016 28.4073 11.7099 28.2977 11.3491C28.1011 10.6955 28.0007 10.0168 28.0002 9.33426C28.0007 8.90362 28.0419 8.47401 28.1227 8.05095C28.1227 8.03462 28.1227 8.01712 28.1297 8.00078C28.2142 7.57962 28.3365 7.16692 28.4948 6.76764C29.5482 4.09499 32.1273 2.33728 35.0001 2.33437C37.8728 2.33728 40.452 4.09499 41.5053 6.76764C41.6641 7.16955 41.7863 7.58502 41.8705 8.00895C41.8705 8.02528 41.8705 8.04278 41.8775 8.05912C41.9578 8.4794 41.9988 8.9064 42 9.33426C41.9994 10.0168 41.899 10.6955 41.7025 11.3491C41.5928 11.7099 41.6654 12.1016 41.8973 12.3991C42.1246 12.7009 42.487 12.8701 42.8644 12.8505L43.1666 12.8342C47.031 12.838 50.1627 15.9697 50.1665 19.8341C50.171 21.4208 49.6303 22.9607 48.6347 24.1962C48.2326 24.6996 48.3147 25.4337 48.8182 25.8359C48.8425 25.8555 48.8677 25.874 48.8937 25.8914C52.6359 28.409 53.6287 33.4835 51.1111 37.2258C50.522 38.1012 49.7691 38.8543 48.8937 39.4432C48.3597 39.8035 48.2188 40.5287 48.5793 41.0628C48.5968 41.0887 48.6153 41.1138 48.6347 41.1383C49.6303 42.3738 50.171 43.9138 50.1665 45.5004C50.1627 49.3648 47.031 52.4965 43.1666 52.5003H36.1667V36.5697C36.2538 36.5267 36.335 36.4726 36.4082 36.4087L43.9914 28.8255C44.4391 28.362 44.4263 27.6235 43.9628 27.1758C43.5108 26.7392 42.794 26.7392 42.3418 27.1758L36.1667 33.3509V16.3342C36.1667 15.6897 35.6443 15.1675 35.0001 15.1675ZM48.9999 67.6667H36.1667V54.8336H48.9999V67.6667ZM63.7456 41.0628C63.7631 41.0887 63.7816 41.1138 63.801 41.1383C64.7966 42.3738 65.3373 43.9138 65.3328 45.5004C65.329 49.3648 62.1973 52.4965 58.3329 52.5003H49.3335C49.4 52.442 49.4595 52.3743 49.5237 52.3136C49.652 52.197 49.7768 52.0745 49.8982 51.9485C49.9938 51.8481 50.0872 51.7443 50.1793 51.6393C50.296 51.5087 50.4045 51.3768 50.5107 51.2392C50.597 51.1295 50.681 51.0187 50.7615 50.9043C50.863 50.7632 50.9587 50.6185 51.052 50.4703C51.1267 50.3537 51.2002 50.237 51.269 50.1203C51.3565 49.9663 51.4382 49.8088 51.5175 49.6537C51.5782 49.5312 51.6342 49.4087 51.696 49.2827C51.7706 49.117 51.8348 48.9455 51.899 48.7752C51.9468 48.648 51.997 48.5244 52.039 48.3949C52.0985 48.2129 52.1463 48.025 52.1941 47.8384C52.2256 47.7147 52.263 47.5934 52.2898 47.4674C52.3353 47.2562 52.3656 47.0415 52.396 46.8257C52.4111 46.7184 52.4333 46.6134 52.445 46.5037C52.4813 46.1705 52.4997 45.8355 52.4998 45.5004C52.5056 43.7923 52.0358 42.1162 51.143 40.66C53.3449 38.7792 54.6705 36.071 54.8051 33.1783L59.1579 28.8255C59.6056 28.362 59.5927 27.6235 59.1293 27.1758C58.6772 26.7392 57.9605 26.7392 57.5082 27.1758L54.5204 30.1636C53.9981 28.0268 52.8164 26.1084 51.143 24.6804C52.0368 23.2225 52.5067 21.5443 52.4998 19.8341C52.4937 15.1016 48.9513 11.1203 44.2516 10.5639C44.3691 9.69943 44.3573 8.82211 44.2166 7.96112C44.2049 7.88179 44.1944 7.80245 44.1804 7.72779C44.1023 7.27352 43.9898 6.82582 43.8444 6.38847C43.8444 6.37681 43.8444 6.36514 43.8363 6.35347C45.5044 2.86592 49.6838 1.39098 53.1714 3.05915C56.2716 4.54196 57.8368 8.0562 56.8654 11.3526C56.7557 11.7134 56.8284 12.1051 57.0602 12.4026C57.288 12.7038 57.6501 12.8729 58.0274 12.854L58.3331 12.8342C62.1974 12.838 65.3292 15.9697 65.333 19.8341C65.3375 21.4208 64.7967 22.9607 63.8011 24.1962C63.3991 24.6996 63.4812 25.4337 63.9846 25.8359C64.009 25.8555 64.0342 25.874 64.0601 25.8914C67.8023 28.409 68.7951 33.4835 66.2775 37.2258C65.6885 38.1012 64.9356 38.8543 64.0601 39.4432C63.526 39.8035 63.3852 40.5287 63.7456 41.0628Z" fill="white"/>
</g>
<defs>
<clipPath id="clip0">
<rect width="70" height="70" fill="white" transform="translate(0.000244141)"/>
</clipPath>
</defs>
</svg>
