<svg width="70" height="70" viewBox="0 0 70 70" fill="none" xmlns="http://www.w3.org/2000/svg">
<path d="M30.6254 70C21.7792 70 14.5837 62.8017 14.5837 53.9583C14.5837 49.1925 16.7508 44.6221 20.4171 41.5858V10.2083C20.4171 4.57917 24.9962 0 30.6254 0C36.2546 0 40.8337 4.57917 40.8337 10.2083V41.5858C44.5 44.6221 46.6671 49.1925 46.6671 53.9583C46.6671 62.8017 39.4717 70 30.6254 70ZM30.6254 2.91667C26.6062 2.91667 23.3337 6.18917 23.3337 10.2083V42.2917C23.3337 42.7496 23.1179 43.1813 22.7533 43.4554C19.4633 45.9317 17.5004 49.8575 17.5004 53.9583C17.5004 61.1946 23.3892 67.0833 30.6254 67.0833C37.8617 67.0833 43.7504 61.1946 43.7504 53.9583C43.7504 49.8575 41.7875 45.9317 38.4975 43.4554C38.1329 43.1813 37.9171 42.7496 37.9171 42.2917V10.2083C37.9171 6.18917 34.6446 2.91667 30.6254 2.91667Z" fill="white"/>
<path d="M30.6254 61.2499C26.6062 61.2499 23.3337 57.9804 23.3337 53.9583C23.3337 49.9362 26.6062 46.6666 30.6254 46.6666C34.6446 46.6666 37.9171 49.9362 37.9171 53.9583C37.9171 57.9804 34.6446 61.2499 30.6254 61.2499ZM30.6254 49.5833C28.2133 49.5833 26.2504 51.5462 26.2504 53.9583C26.2504 56.3704 28.2133 58.3333 30.6254 58.3333C33.0375 58.3333 35.0004 56.3704 35.0004 53.9583C35.0004 51.5462 33.0375 49.5833 30.6254 49.5833Z" fill="white"/>
<path d="M30.625 49.5834C29.82 49.5834 29.1666 48.93 29.1666 48.125V16.0417C29.1666 15.2367 29.82 14.5834 30.625 14.5834C31.43 14.5834 32.0833 15.2367 32.0833 16.0417V48.125C32.0833 48.93 31.43 49.5834 30.625 49.5834Z" fill="white"/>
<path d="M53.9584 11.6667H48.1251C47.3201 11.6667 46.6667 11.0133 46.6667 10.2083C46.6667 9.40333 47.3201 8.75 48.1251 8.75H53.9584C54.7634 8.75 55.4167 9.40333 55.4167 10.2083C55.4167 11.0133 54.7634 11.6667 53.9584 11.6667Z" fill="white"/>
<path d="M53.9584 23.3333H48.1251C47.3201 23.3333 46.6667 22.68 46.6667 21.875C46.6667 21.07 47.3201 20.4166 48.1251 20.4166H53.9584C54.7634 20.4166 55.4167 21.07 55.4167 21.875C55.4167 22.68 54.7634 23.3333 53.9584 23.3333Z" fill="white"/>
<path d="M53.9584 35H48.1251C47.3201 35 46.6667 34.3467 46.6667 33.5417C46.6667 32.7367 47.3201 32.0834 48.1251 32.0834H53.9584C54.7634 32.0834 55.4167 32.7367 55.4167 33.5417C55.4167 34.3467 54.7634 35 53.9584 35Z" fill="white"/>
</svg>
