<svg width="70" height="70" viewBox="0 0 70 70" fill="none" xmlns="http://www.w3.org/2000/svg">
<g clip-path="url(#clip0)">
<path d="M57.6339 52.4863C58.8648 51.1059 58.8091 49.0059 57.5067 47.6925L54.0476 44.2334C58.6796 38.1978 58.1279 29.6654 52.7572 24.2765L37.817 9.33392L38.118 9.03292C40.1843 6.96662 40.1843 3.61627 38.118 1.54997C36.0517 -0.516331 32.7013 -0.516331 30.635 1.54997L24.5007 7.68426L17.8834 1.06697C16.4614 -0.35504 14.1558 -0.35504 12.7338 1.06697C11.3118 2.48898 11.3118 4.79459 12.7338 6.21661L19.3511 12.8339L12.8341 19.3509L6.21685 12.7336C4.79484 11.3116 2.48923 11.3116 1.06722 12.7336C-0.354796 14.1556 -0.354796 16.4612 1.06722 17.8832L7.68451 24.5005L1.55021 30.6348C-0.516087 32.7011 -0.516087 36.0514 1.55021 38.1177C3.61651 40.184 6.96687 40.184 9.03317 38.1177L9.33416 37.8167L24.2767 52.7593C29.6612 58.14 38.2013 58.6922 44.2336 54.0496L47.6928 57.5088C49.0013 58.8222 51.1102 58.8782 52.4866 57.636L64.8508 70.0002H70.0005V64.8506L57.6339 52.4863ZM14.3835 4.56695C13.8725 4.05595 13.8725 3.22763 14.3835 2.71663C14.8945 2.20563 15.7228 2.20563 16.2338 2.71663L22.8511 9.33392L21.0008 11.1842L14.3835 4.56695ZM2.71687 16.2335C2.20588 15.7225 2.20588 14.8942 2.71687 14.3832C3.22787 13.8722 4.0562 13.8722 4.56719 14.3832L11.1845 21.0005L9.33416 22.8508L2.71687 16.2335ZM7.68451 36.1671L7.38351 36.4681C6.21 37.6051 4.33692 37.5757 3.19987 36.4022C2.08804 35.2548 2.08804 33.4319 3.19987 32.2844L9.33416 26.1502L14.4838 21.0005L21.0008 14.4836L26.1504 9.33392L32.2847 3.19963C33.4582 2.06257 35.3313 2.09203 36.4683 3.26554C37.5802 4.41295 37.5802 6.23586 36.4683 7.38327L36.1673 7.68426L7.68451 36.1671ZM44.0761 51.1097C39.0609 56.1135 30.9416 56.1135 25.9264 51.1097L10.9838 36.1671L36.1673 10.9836L51.1099 25.9262C56.1137 30.9413 56.1137 39.0606 51.1099 44.0759L44.0761 51.1097ZM50.9921 55.8591C50.5365 56.3146 49.798 56.3146 49.3424 55.8591L45.9836 52.5003L52.5006 45.9834L55.8594 49.3422C56.3148 49.7978 56.3148 50.5363 55.8594 50.9918L50.9921 55.8591ZM67.6671 67.6669H65.8168L54.1502 56.0003L56.0005 54.15L67.6671 65.8166V67.6669Z" fill="white"/>
<path d="M43.1463 42.9511L39.6463 24.2845C39.5266 23.6514 38.9163 23.2352 38.2832 23.355C38.0532 23.3984 37.8415 23.5101 37.6758 23.6755L34.2598 27.0915L32.5834 22.9009C32.4375 22.5367 32.1184 22.2701 31.734 22.1915C31.3499 22.11 30.9508 22.2296 30.6747 22.5089L24.8414 28.3422C24.5114 28.6719 24.4096 29.1665 24.5824 29.5998L29.249 41.2664C29.4881 41.8648 30.1668 42.1561 30.7653 41.9171C30.9123 41.8584 31.0458 41.7704 31.1577 41.6584L35.0007 37.8166L41.1758 43.9917C41.6321 44.4466 42.3708 44.4456 42.8257 43.9893C43.097 43.7171 43.2169 43.3288 43.1463 42.9511ZM35.8255 35.3421C35.3699 34.8867 34.6314 34.8867 34.1758 35.3421L30.7599 38.7581L27.0371 29.4493L31.0749 25.4103L32.7513 29.601C32.9904 30.1993 33.6691 30.4907 34.2676 30.2517C34.4146 30.1929 34.5482 30.105 34.66 29.993L37.7622 26.8908L40.1608 39.6763L35.8255 35.3421Z" fill="white"/>
</g>
<defs>
<clipPath id="clip0">
<rect width="70" height="70" fill="white" transform="translate(0.000244141)"/>
</clipPath>
</defs>
</svg>
