<svg width="71" height="70" viewBox="0 0 71 70" fill="none" xmlns="http://www.w3.org/2000/svg">
<g clip-path="url(#clip0)">
<path d="M48.5597 40.9809C44.9312 37.4861 40.1399 35.5613 35.0687 35.5613C29.9965 35.5613 25.2047 37.4866 21.5761 40.9825C20.9067 41.6273 20.2796 42.324 19.7118 43.0528C18.3826 44.7608 18.5416 47.2116 20.0805 48.7586C20.0832 48.7613 20.0859 48.7639 20.0885 48.7666C20.9056 49.5837 21.9908 50.0337 23.1434 50.0337C24.4972 50.0337 25.7569 49.4194 26.5991 48.3476C26.8629 48.0116 27.1514 47.6868 27.4558 47.3828C29.4844 45.3543 32.1877 44.237 35.0687 44.237C37.9492 44.237 40.6531 45.3543 42.6816 47.3823C42.985 47.6862 43.2735 48.011 43.5383 48.3476C44.3806 49.4189 45.6397 50.0337 46.9935 50.0337H46.994C48.1466 50.0337 49.2318 49.5837 50.0484 48.7666C50.0516 48.7639 50.0543 48.7613 50.057 48.7586C51.5959 47.2116 51.7548 44.7608 50.4251 43.0528C49.8574 42.3234 49.2297 41.6267 48.5597 40.9809ZM48.5961 47.3133C48.594 47.3154 48.5918 47.3175 48.5902 47.3197C48.1616 47.7451 47.5949 47.9795 46.9935 47.9795C46.2743 47.9795 45.6038 47.6509 45.1533 47.0778C44.8381 46.677 44.4951 46.2907 44.1339 45.93C41.7179 43.513 38.4982 42.1827 35.0687 42.1827C31.6387 42.1827 28.4195 43.5135 26.003 45.93C25.6408 46.2923 25.2983 46.6781 24.9837 47.0784C24.5336 47.6509 23.8632 47.9795 23.1434 47.9795C22.542 47.9795 21.9758 47.7451 21.5472 47.3197C21.5451 47.3181 21.5429 47.3159 21.5413 47.3138C20.7264 46.4988 20.637 45.2098 21.3332 44.3151C21.841 43.6633 22.4023 43.0399 23.0016 42.462C26.2454 39.337 30.5311 37.6161 35.0687 37.6161C39.6059 37.6161 43.891 39.3365 47.1342 42.461C47.7341 43.0389 48.2959 43.6628 48.8037 44.3151C49.5005 45.2098 49.4111 46.4988 48.5961 47.3133Z" fill="white"/>
<path d="M35.0687 48.8067C33.4158 48.8067 31.8613 49.4504 30.6926 50.6191C29.524 51.7878 28.8802 53.3417 28.8802 54.9946C28.8802 56.6476 29.524 58.202 30.6926 59.3707C31.8613 60.5394 33.4158 61.1831 35.0687 61.1831C36.7216 61.1831 38.2756 60.5394 39.4442 59.3707C41.857 56.9579 41.857 53.0319 39.4442 50.6191C38.2756 49.4504 36.7216 48.8067 35.0687 48.8067ZM37.9914 57.9179C37.2107 58.6986 36.1726 59.1288 35.0687 59.1288C33.9643 59.1288 32.9262 58.6986 32.1454 57.9179C31.3647 57.1372 30.9345 56.0991 30.9345 54.9952C30.9345 53.8907 31.3647 52.8526 32.1454 52.0719C32.9262 51.2912 33.9643 50.861 35.0687 50.861C36.1726 50.861 37.2107 51.2912 37.9914 52.0719C39.6032 53.6836 39.6032 56.3062 37.9914 57.9179Z" fill="white"/>
<path d="M69.0028 23.9672C68.5432 23.4647 68.0637 22.9633 67.5778 22.4775C60.8917 15.794 52.4788 11.3794 43.2483 9.71152C34.226 8.0816 25.0302 9.1593 16.6553 12.8296C16.1357 13.0575 15.8987 13.6633 16.1266 14.1828C16.3546 14.7024 16.9603 14.9395 17.4799 14.7115C34.1307 7.41486 53.2253 11.0338 66.125 23.9308C66.5895 24.3953 67.0481 24.8742 67.4874 25.3542C68.3099 26.2526 68.2735 27.6364 67.405 28.5049C66.9571 28.9522 66.361 29.193 65.7296 29.177C65.1051 29.163 64.5299 28.9035 64.1109 28.4449C63.7165 28.0142 63.3066 27.5856 62.8925 27.1714C55.4776 19.7565 45.5969 15.6736 35.0687 15.6736C35.0682 15.6736 35.0666 15.6736 35.0661 15.6736C24.5369 15.6742 14.6551 19.7591 7.24126 27.1751C6.82709 27.5898 6.41827 28.0169 6.02658 28.4449C5.60706 28.9035 5.03236 29.1636 4.40789 29.177C3.77219 29.1919 3.18037 28.9522 2.73248 28.5049C1.86401 27.6364 1.82763 26.2526 2.64954 25.3547C3.08779 24.8758 3.54531 24.398 4.0087 23.9346C7.01331 20.9294 10.4059 18.3861 14.0906 16.3752C14.5888 16.1033 14.7723 15.4794 14.5005 14.9812C14.2286 14.4836 13.6047 14.2995 13.1065 14.5719C9.24897 16.6764 5.69909 19.338 2.55537 22.4818C2.0711 22.9666 1.59272 23.4663 1.13413 23.9672C-0.432113 25.6785 -0.368436 28.3096 1.27968 29.9577C2.10427 30.7817 3.19214 31.2323 4.35385 31.2323C4.38649 31.2323 4.4202 31.2318 4.45337 31.2312C5.64398 31.205 6.74094 30.7079 7.54252 29.8319C7.91388 29.4258 8.3013 29.0207 8.69406 28.6279C15.72 21.5999 25.0859 17.729 35.0661 17.7284H35.0687C45.0473 17.7284 54.4132 21.5978 61.4397 28.6242C61.8324 29.017 62.2215 29.4236 62.595 29.8319C63.3965 30.7079 64.4935 31.205 65.6841 31.2312C66.8699 31.2569 68.022 30.793 68.8578 29.9577C70.5054 28.3096 70.5696 25.6785 69.0028 23.9672Z" fill="white"/>
<path d="M57.6288 31.3009C52.0621 25.9948 44.7526 22.82 37.046 22.3609C36.4788 22.3277 35.993 22.759 35.9592 23.3252C35.9255 23.8919 36.3574 24.3783 36.924 24.412C44.1463 24.8422 50.9956 27.8163 56.2113 32.7879C56.8716 33.4178 57.51 34.0818 58.1082 34.7619C58.9061 35.6689 58.8638 37.0463 58.0119 37.8982C57.5608 38.3487 56.9631 38.5858 56.3247 38.5654C55.6826 38.5446 55.094 38.2669 54.668 37.782C54.1993 37.2491 53.7017 36.7279 53.1896 36.2324C48.3196 31.5262 41.8844 28.9347 35.0694 28.9341H35.0688C28.2543 28.9341 21.8192 31.5256 16.9492 36.2313C16.4355 36.7274 15.9378 37.2491 15.4691 37.782C15.0432 38.2669 14.4551 38.5446 13.8124 38.5654C13.1756 38.5868 12.5763 38.3487 12.1252 37.8976C11.2744 37.0468 11.2263 35.6753 12.0161 34.7764C12.4158 34.321 12.8348 33.8715 13.2618 33.4402C18.5657 28.0753 25.6521 24.8695 33.2152 24.4136C33.7814 24.3793 34.2127 23.8924 34.179 23.3262C34.1447 22.7601 33.6583 22.3272 33.0916 22.3625C25.0223 22.8489 17.4613 26.2704 11.801 31.9954C11.3461 32.4556 10.8993 32.9351 10.4723 33.4204C8.96973 35.1312 9.05803 37.736 10.6724 39.3504C11.4954 40.1729 12.5774 40.6208 13.7343 40.6208C13.7824 40.6208 13.8306 40.6202 13.8788 40.6186C15.0769 40.5801 16.2193 40.0407 17.0123 39.1385C17.4442 38.6468 17.9033 38.1657 18.3768 37.7087C27.5817 28.8148 42.5581 28.8153 51.7619 37.7098C52.2344 38.1663 52.693 38.6468 53.1253 39.1385C53.9184 40.0407 55.0608 40.5801 56.2589 40.6186C57.4709 40.6577 58.608 40.2071 59.4647 39.3504C61.0807 37.7344 61.1621 35.1226 59.6509 33.4044C59.0131 32.6798 58.333 31.9719 57.6288 31.3009Z" fill="white"/>
</g>
<defs>
<clipPath id="clip0">
<rect width="70.1368" height="70" fill="white" transform="translate(0.000244141)"/>
</clipPath>
</defs>
</svg>
