<svg width="34" height="17" viewBox="0 0 34 17" fill="none" xmlns="http://www.w3.org/2000/svg">
<path d="M0.619484 9.18175H32.3805C32.7225 9.18175 33 8.8763 33 8.49993C33 8.12357 32.7225 7.81812 32.3805 7.81812H0.619484C0.277527 7.81812 0 8.12357 0 8.49993C0 8.8763 0.277527 9.18175 0.619484 9.18175Z" fill="#EFEFEF"/>
<path d="M25.1541 16C25.2315 16 25.3088 15.9718 25.3681 15.916L32.9453 8.70203C33.0015 8.64794 33.0336 8.57487 33.0336 8.49835C33.0336 8.42182 33.0015 8.34875 32.9453 8.29467L25.3674 1.08415C25.2496 0.971951 25.058 0.971951 24.9401 1.08415C24.8223 1.19634 24.8223 1.37874 24.9401 1.49093L32.3041 8.49835L24.9401 15.5086C24.8223 15.6208 24.8223 15.8032 24.9401 15.9154C24.9994 15.9718 25.0767 16 25.1541 16Z" fill="#EFEFEF" stroke="#EFEFEF" stroke-width="0.681818"/>
</svg>
