<svg width="176" height="176" viewBox="0 0 176 176" fill="none" xmlns="http://www.w3.org/2000/svg">
<circle opacity="0.15" cx="88" cy="88" r="88" fill="white"/>
<circle opacity="0.25" cx="88" cy="88" r="67" fill="white"/>
<circle cx="88" cy="88" r="48" fill="white"/>
<path d="M76.0593 79.456H75.3753L73.5753 86.884L71.5833 79.456H70.9113L68.9193 86.884L67.1193 79.456H66.4353L68.5713 88H69.2313L71.2473 80.56L73.2633 88H73.9233L76.0593 79.456ZM82.8009 88V87.424H78.2649V83.98H82.1289V83.404H78.2649V80.032H82.8009V79.456H77.6169V88H82.8009ZM93.5713 88L90.4273 79.456H89.8513L86.7073 88H87.4033L88.1473 85.924H92.1313L92.8753 88H93.5713ZM91.9273 85.348H88.3513L90.1393 80.32L91.9273 85.348ZM100.862 88L98.7981 84.052C99.3981 83.948 99.8741 83.7 100.226 83.308C100.586 82.908 100.766 82.388 100.766 81.748C100.766 81.38 100.702 81.052 100.574 80.764C100.454 80.476 100.282 80.236 100.058 80.044C99.8421 79.852 99.5821 79.708 99.2781 79.612C98.9821 79.508 98.6621 79.456 98.3181 79.456H95.0661V88H95.7141V84.064H98.0661L100.106 88H100.862ZM100.118 81.76C100.118 82.056 100.07 82.312 99.9741 82.528C99.8861 82.744 99.7581 82.924 99.5901 83.068C99.4221 83.212 99.2221 83.32 98.9901 83.392C98.7581 83.456 98.5061 83.488 98.2341 83.488H95.7141V80.032H98.2341C98.5061 80.032 98.7581 80.068 98.9901 80.14C99.2221 80.204 99.4221 80.308 99.5901 80.452C99.7581 80.596 99.8861 80.776 99.9741 80.992C100.07 81.208 100.118 81.464 100.118 81.76ZM108.137 88V87.424H103.601V83.98H107.465V83.404H103.601V80.032H108.137V79.456H102.953V88H108.137ZM79.2575 104V95.456H78.6095V99.404H74.1575V95.456H73.5095V104H74.1575V99.98H78.6095V104H79.2575ZM87.0841 104V103.424H82.5481V99.98H86.4121V99.404H82.5481V96.032H87.0841V95.456H81.9001V104H87.0841ZM94.868 104L92.804 100.052C93.404 99.948 93.88 99.7 94.232 99.308C94.592 98.908 94.772 98.388 94.772 97.748C94.772 97.38 94.708 97.052 94.58 96.764C94.46 96.476 94.288 96.236 94.064 96.044C93.848 95.852 93.588 95.708 93.284 95.612C92.988 95.508 92.668 95.456 92.324 95.456H89.072V104H89.72V100.064H92.072L94.112 104H94.868ZM94.124 97.76C94.124 98.056 94.076 98.312 93.98 98.528C93.892 98.744 93.764 98.924 93.596 99.068C93.428 99.212 93.228 99.32 92.996 99.392C92.764 99.456 92.512 99.488 92.24 99.488H89.72V96.032H92.24C92.512 96.032 92.764 96.068 92.996 96.14C93.228 96.204 93.428 96.308 93.596 96.452C93.764 96.596 93.892 96.776 93.98 96.992C94.076 97.208 94.124 97.464 94.124 97.76ZM102.143 104V103.424H97.6067V99.98H101.471V99.404H97.6067V96.032H102.143V95.456H96.9587V104H102.143Z" fill="#333333"/>
</svg>
