<svg aria-hidden="true" style="position: absolute; width: 0; height: 0; overflow: hidden;" version="1.1" xmlns="http://www.w3.org/2000/svg" xmlns:xlink="http://www.w3.org/1999/xlink">
<defs>
<symbol id="icon-v" viewBox="0 0 32 32">
<path fill="#fff" style="fill: var(--color1, #fff)" d="M26.347 23.994c0.563-0.631 0.537-1.591-0.058-2.191l-1.581-1.581c2.117-2.759 1.865-6.66-0.59-9.123l-6.83-6.831 0.138-0.138c0.945-0.945 0.945-2.476 0-3.421s-2.476-0.945-3.421 0l-2.804 2.804-3.025-3.025c-0.65-0.65-1.704-0.65-2.354 0s-0.65 1.704 0 2.354l3.025 3.025-2.979 2.979-3.025-3.025c-0.65-0.65-1.704-0.65-2.354 0s-0.65 1.704 0 2.354l3.025 3.025-2.804 2.804c-0.945 0.945-0.945 2.476 0 3.421s2.476 0.945 3.421 0l0.138-0.138 6.831 6.831c2.462 2.46 6.366 2.712 9.123 0.59l1.581 1.581c0.598 0.6 1.562 0.626 2.191 0.058l5.652 5.652h2.354v-2.354l-5.653-5.652zM6.575 2.088c-0.234-0.234-0.234-0.612 0-0.846s0.612-0.234 0.846 0l3.025 3.025-0.846 0.846-3.025-3.025zM1.242 7.421c-0.234-0.234-0.234-0.612 0-0.846s0.612-0.234 0.846 0l3.025 3.025-0.846 0.846-3.025-3.025zM3.513 16.534l-0.138 0.138c-0.536 0.52-1.393 0.506-1.913-0.030-0.508-0.525-0.508-1.358 0-1.882l13.296-13.296c0.536-0.52 1.393-0.506 1.913 0.030 0.508 0.525 0.508 1.358 0 1.882l-13.158 13.158zM20.149 23.364c-2.293 2.287-6.004 2.287-8.297 0l-6.831-6.831 11.512-11.512 6.831 6.831c2.287 2.293 2.287 6.004 0 8.297l-3.215 3.215zM23.311 25.536c-0.208 0.208-0.546 0.208-0.754 0l-1.535-1.535 2.979-2.979 1.535 1.535c0.208 0.208 0.208 0.546 0 0.754l-2.225 2.225zM30.934 30.933h-0.846l-5.333-5.333 0.846-0.846 5.333 5.333v0.846z"></path>
<path fill="#fff" style="fill: var(--color1, #fff)" d="M19.724 19.635l-1.6-8.533c-0.055-0.289-0.334-0.48-0.623-0.425-0.105 0.020-0.202 0.071-0.278 0.146l-1.562 1.562-0.766-1.916c-0.067-0.166-0.213-0.288-0.388-0.324-0.176-0.037-0.358 0.017-0.484 0.145l-2.667 2.667c-0.151 0.151-0.197 0.377-0.118 0.575l2.133 5.333c0.109 0.274 0.42 0.407 0.693 0.297 0.067-0.027 0.128-0.067 0.179-0.118l1.757-1.756 2.823 2.823c0.209 0.208 0.546 0.207 0.754-0.001 0.124-0.124 0.179-0.302 0.147-0.475zM16.377 16.156c-0.208-0.208-0.546-0.208-0.754 0l-1.562 1.562-1.702-4.255 1.846-1.846 0.766 1.916c0.109 0.274 0.42 0.407 0.693 0.297 0.067-0.027 0.128-0.067 0.179-0.118l1.418-1.418 1.096 5.845-1.982-1.981z"></path>
</symbol>
<symbol id="icon-back" viewBox="0 0 64 32">
<path fill="#efefef" style="fill: var(--color2, #efefef)" d="M1.166 17.283h59.785c0.644 0 1.166-0.575 1.166-1.283s-0.522-1.283-1.166-1.283h-59.785c-0.644 0-1.166 0.575-1.166 1.283s0.522 1.283 1.166 1.283z"></path>
<path fill="#efefef" style="fill: var(--color2, #efefef); stroke: var(--color2, #efefef)" stroke="#efefef" stroke-linejoin="miter" stroke-linecap="butt" stroke-miterlimit="4" stroke-width="1.2834" d="M47.349 30.118c0.146 0 0.291-0.053 0.403-0.158l14.263-13.579c0.106-0.102 0.166-0.239 0.166-0.383s-0.060-0.282-0.166-0.383l-14.264-13.573c-0.222-0.211-0.582-0.211-0.804 0s-0.222 0.555 0 0.766l13.862 13.19-13.862 13.196c-0.222 0.211-0.222 0.555 0 0.766 0.112 0.106 0.257 0.159 0.403 0.159z"></path>
</symbol>
<symbol id="icon-bank" viewBox="0 0 32 32">
<path fill="#e9ece0" style="fill: var(--color3, #e9ece0)" d="M5.853 22.202c0.334-0.167 0.982-0.49 0.982-1.641 0-0.826-0.502-2.055-2.467-2.055h-3.893v8.013h3.393c1.641 0 2.076-0.279 2.533-0.728 0.422-0.41 0.69-1.015 0.69-1.648 0-0.793-0.256-1.574-1.238-1.941zM2.083 19.893h1.92c0.758 0 1.227 0.2 1.227 0.858 0 0.638-0.523 0.894-1.184 0.894h-1.963v-1.752zM4.134 25.135h-2.051v-2.143h2.131c0.604 0 1.205 0.271 1.205 0.971-0.002 0.813-0.471 1.172-1.285 1.172z"></path>
<path fill="#e9ece0" style="fill: var(--color3, #e9ece0)" d="M0.476 27.788v0.728h1.24v3.377h0.855v-3.377h1.243v-0.728h-3.338z"></path>
<path fill="#e9ece0" style="fill: var(--color3, #e9ece0)" d="M28.066 21.787l3.27-3.282h-2.164l-3.058 3.257v-3.257h-1.674v8.011h1.674v-2.711l0.781-0.804 2.476 3.515h2.154l-3.459-4.729z"></path>
<path fill="#e9ece0" style="fill: var(--color3, #e9ece0)" d="M12.361 18.505h-1.93l-2.854 8.012h1.762l0.557-1.65h2.957l0.514 1.649h1.818l-2.824-8.011zM10.342 23.481l1.027-3.168h0.023l0.992 3.168h-2.042z"></path>
<path fill="#e9ece0" style="fill: var(--color3, #e9ece0)" d="M19.829 2.805c-0.502-0.593-1.055-1.146-1.705-1.625-0.322-0.242-0.666-0.465-1.043-0.665-0.38-0.196-0.769-0.385-1.234-0.515 0.008 0.483 0.092 0.908 0.191 1.324 0.094 0.404 0.221 0.783 0.369 1.147-0.354 0.104-0.784 0.25-1.268 0.438-0.313 0.14-0.656 0.266-1.002 0.453-0.351 0.168-0.707 0.372-1.068 0.6-0.367 0.207-0.709 0.501-1.068 0.755-0.327 0.311-0.686 0.58-0.977 0.933-0.301 0.338-0.595 0.676-0.822 1.060-0.115 0.187-0.248 0.36-0.344 0.551-0.092 0.194-0.18 0.387-0.266 0.575-0.195 0.364-0.284 0.756-0.386 1.113-0.121 0.354-0.164 0.701-0.197 1.021-0.027 0.319-0.094 0.601-0.078 0.861 0.008 0.256 0.014 0.478 0.020 0.662 0.011 0.363 0.014 0.57 0.014 0.57s0.039-0.205 0.105-0.562c0.033-0.177 0.074-0.39 0.121-0.636 0.037-0.245 0.164-0.505 0.252-0.792 0.094-0.287 0.203-0.593 0.383-0.887 0.164-0.299 0.313-0.622 0.555-0.901 0.109-0.143 0.221-0.291 0.332-0.438 0.117-0.143 0.267-0.266 0.396-0.4 0.254-0.277 0.564-0.501 0.871-0.723 0.293-0.233 0.65-0.39 0.959-0.581 0.352-0.141 0.662-0.317 1.008-0.419 0.33-0.12 0.655-0.221 0.973-0.293 0.309-0.090 0.62-0.13 0.891-0.188 0.174-0.025 0.334-0.046 0.488-0.065-0.018 0.046-0.037 0.090-0.053 0.137-0.158 0.433-0.281 0.888-0.367 1.367-0.039 0.243-0.071 0.489-0.096 0.74-0.020 0.255-0.024 0.519-0.006 0.797 0.261-0.1 0.498-0.213 0.723-0.336 0.217-0.127 0.43-0.259 0.633-0.395 0.403-0.277 0.766-0.578 1.094-0.9 0.664-0.642 1.213-1.359 1.674-2.13l0.059-0.098c0.283-0.479 0.25-1.106-0.131-1.555z"></path>
<path fill="#e9ece0" style="fill: var(--color3, #e9ece0)" d="M7.578 30.965c0-0.766-0.184-0.892-0.521-1.040 0.406-0.137 0.635-0.524 0.635-0.979 0-0.354-0.199-1.159-1.291-1.159h-2.076v4.103h0.842v-1.605h0.885c0.635 0 0.67 0.218 0.67 0.776 0 0.422 0.033 0.636 0.090 0.828h0.949v-0.107c-0.183-0.068-0.183-0.218-0.183-0.817zM6.169 29.596h-1.003v-1.1h1.068c0.502 0 0.6 0.318 0.6 0.537-0.001 0.404-0.217 0.563-0.665 0.563z"></path>
<path fill="#e9ece0" style="fill: var(--color3, #e9ece0)" d="M23.339 28.516v-0.728h-2.92v4.106h0.858v-1.726h1.806v-0.726h-1.806v-0.926h2.062z"></path>
<path fill="#e9ece0" style="fill: var(--color3, #e9ece0)" d="M24.755 31.165v-1.060h2v-0.726h-2v-0.862h2.179v-0.727h-3.019v4.103h3.115v-0.728h-2.275z"></path>
<path fill="#e9ece0" style="fill: var(--color3, #e9ece0)" d="M18.691 29.553l-0.998-0.246c-0.172-0.041-0.436-0.11-0.436-0.43 0-0.371 0.391-0.49 0.715-0.49 0.75 0 0.819 0.433 0.842 0.616h0.82c-0.006-0.503-0.342-1.325-1.6-1.325-1.332 0-1.577 0.805-1.577 1.262 0 0.904 0.639 1.055 1.303 1.207l0.439 0.104c0.433 0.105 0.743 0.189 0.743 0.511 0 0.429-0.453 0.529-0.856 0.529-0.75 0-0.865-0.434-0.871-0.663h-0.82c0 0.511 0.255 1.372 1.753 1.372 0.358 0 1.617-0.112 1.617-1.343-0.001-0.737-0.515-0.968-1.074-1.104z"></path>
<path fill="#e9ece0" style="fill: var(--color3, #e9ece0)" d="M30.982 30.965c0-0.766-0.186-0.892-0.521-1.040 0.404-0.137 0.637-0.524 0.637-0.979 0-0.354-0.201-1.159-1.293-1.159h-2.074v4.103h0.842v-1.605h0.885c0.633 0 0.67 0.218 0.67 0.776 0 0.422 0.033 0.636 0.091 0.828h0.946v-0.107c-0.183-0.068-0.183-0.218-0.183-0.817zM29.576 29.596h-1.004v-1.1h1.066c0.504 0 0.602 0.318 0.602 0.537 0 0.404-0.217 0.563-0.664 0.563z"></path>
<path fill="#e9ece0" style="fill: var(--color3, #e9ece0)" d="M21.145 18.508v5.578h-0.021l-3.181-5.578h-1.763v8.012h1.562l0.002-5.712h0.021l3.27 5.713h1.672v-8.013h-1.562z"></path>
<path fill="#e9ece0" style="fill: var(--color3, #e9ece0)" d="M10.474 27.788h-0.991l-1.463 4.103h0.904l0.285-0.847h1.514l0.264 0.847h0.932l-1.445-4.103zM9.439 30.336l0.527-1.622h0.008l0.512 1.622h-1.047z"></path>
<path fill="#e9ece0" style="fill: var(--color3, #e9ece0)" d="M14.976 27.788l-0.001 2.856h-0.010l-1.631-2.856h-0.902v4.103h0.799v-2.927h0.013l1.674 2.927h0.859v-4.103h-0.801z"></path>
<path fill="#e9ece0" style="fill: var(--color3, #e9ece0)" d="M21.957 5.66c-0.019-0.362-0.035-0.568-0.035-0.568s-0.029 0.205-0.090 0.564c-0.029 0.177-0.062 0.392-0.101 0.639-0.030 0.246-0.149 0.509-0.229 0.799-0.083 0.29-0.182 0.598-0.354 0.898-0.154 0.304-0.293 0.63-0.527 0.917-0.104 0.147-0.211 0.297-0.317 0.449-0.115 0.145-0.259 0.273-0.388 0.411-0.244 0.283-0.547 0.518-0.848 0.748-0.283 0.242-0.637 0.408-0.941 0.609-0.346 0.151-0.651 0.337-0.994 0.448-0.325 0.131-0.648 0.241-0.964 0.322-0.305 0.1-0.613 0.149-0.883 0.214-0.173 0.031-0.334 0.057-0.486 0.080 0.014-0.047 0.033-0.091 0.049-0.138 0.144-0.439 0.254-0.897 0.326-1.378 0.031-0.244 0.054-0.491 0.072-0.743 0.013-0.255 0.009-0.52-0.016-0.796-0.258 0.106-0.492 0.227-0.713 0.357-0.215 0.133-0.42 0.271-0.621 0.413-0.392 0.289-0.746 0.6-1.064 0.933-0.644 0.661-1.171 1.394-1.609 2.179l-0.057 0.098c-0.269 0.488-0.217 1.113 0.178 1.551 0.52 0.577 1.090 1.114 1.752 1.573 0.328 0.233 0.679 0.445 1.064 0.633 0.383 0.186 0.777 0.364 1.248 0.479-0.025-0.481-0.123-0.903-0.23-1.316-0.107-0.401-0.244-0.777-0.404-1.136 0.352-0.115 0.775-0.273 1.254-0.475 0.308-0.148 0.647-0.286 0.988-0.483 0.344-0.177 0.696-0.392 1.045-0.631 0.36-0.218 0.694-0.522 1.047-0.787 0.317-0.319 0.668-0.601 0.949-0.961 0.291-0.347 0.573-0.692 0.789-1.083 0.11-0.191 0.235-0.368 0.327-0.562 0.084-0.197 0.168-0.392 0.248-0.583 0.184-0.37 0.262-0.765 0.354-1.124 0.108-0.356 0.144-0.705 0.166-1.025 0.021-0.319 0.076-0.604 0.054-0.863-0.017-0.255-0.029-0.478-0.039-0.662z"></path>
</symbol>
<symbol id="icon-coffee" viewBox="0 0 32 32">
<path fill="#fff" style="fill: var(--color1, #fff)" d="M29.486 0h-21.333c-0.295 0-0.533 0.239-0.533 0.533v5.333c0.002 1.472 1.195 2.665 2.667 2.667h2.133v1.6h-0.533c0.001-0.282-0.219-0.516-0.5-0.533l-8.533-0.533c-0.294-0.018-0.547 0.205-0.565 0.499-0.001 0.011-0.001 0.023-0.001 0.034v2.133c0 0.295 0.239 0.533 0.533 0.533h0.033l8.533-0.533c0.282-0.017 0.501-0.251 0.5-0.533h0.533v1.067c0 0.295 0.239 0.533 0.533 0.533h1.067v1.6c0 0.295 0.239 0.533 0.533 0.533h0.533v0.533c0 0.295 0.239 0.533 0.533 0.533s0.533-0.239 0.533-0.533v-0.533h0.533c0.295 0 0.533-0.239 0.533-0.533v-1.6h1.067c0.295 0 0.533-0.239 0.533-0.533v-3.733h2.667v14.933h-5.333c1.472-0.002 2.665-1.195 2.667-2.667v-3.2c0-0.295-0.239-0.533-0.533-0.533h-5.333c-0.295 0-0.533 0.239-0.533 0.533v0.533h-0.533c-0.294 0-0.533 0.239-0.533 0.533s0.239 0.533 0.533 0.533h0.533v1.6c0.002 1.472 1.195 2.665 2.667 2.667h-4.267c-1.472 0.002-2.665 1.195-2.667 2.667v5.333c0 0.295 0.239 0.533 0.533 0.533h20.8c0.295 0 0.533-0.239 0.533-0.533v-30.933c0-0.295-0.239-0.533-0.533-0.533zM10.819 10.699l-7.467 0.467v-0.998l7.467 0.467v0.065zM13.486 20.8v-2.667h4.267v2.667c0 0.884-0.716 1.6-1.6 1.6h-1.067c-0.884 0-1.6-0.716-1.6-1.6zM21.486 30.933h-12.267v-4.8c0-0.884 0.716-1.6 1.6-1.6h10.667v6.4zM16.152 13.867h-1.067v-1.067h1.067v1.067zM17.753 11.733h-4.267v-3.2h4.267v3.2zM28.953 30.933h-6.4v-22.933c0-0.295-0.239-0.533-0.533-0.533h-11.733c-0.884 0-1.6-0.716-1.6-1.6v-4.8h20.267v29.867z"></path>
<path fill="#fff" style="fill: var(--color1, #fff)" d="M25.219 6.933c1.473 0 2.667-1.194 2.667-2.667s-1.194-2.667-2.667-2.667c-1.473 0-2.667 1.194-2.667 2.667 0.002 1.472 1.195 2.665 2.667 2.667zM25.219 3.733h-1.502c0.225-0.637 0.826-1.064 1.502-1.067 0.884-0.004 1.603 0.71 1.607 1.593s-0.71 1.603-1.593 1.607c-0.68 0.003-1.288-0.425-1.515-1.067h1.502c0.294 0 0.533-0.239 0.533-0.533s-0.239-0.533-0.533-0.533z"></path>
<path fill="#fff" style="fill: var(--color1, #fff)" d="M24.152 11.733c-0.295 0-0.533 0.239-0.533 0.533v1.067c0 0.294 0.239 0.533 0.533 0.533s0.533-0.239 0.533-0.533v-1.067c0-0.295-0.239-0.533-0.533-0.533z"></path>
<path fill="#fff" style="fill: var(--color1, #fff)" d="M24.152 14.933c-0.295 0-0.533 0.239-0.533 0.533v1.067c0 0.294 0.239 0.533 0.533 0.533s0.533-0.239 0.533-0.533v-1.067c0-0.295-0.239-0.533-0.533-0.533z"></path>
<path fill="#fff" style="fill: var(--color1, #fff)" d="M24.152 18.133c-0.295 0-0.533 0.239-0.533 0.533v1.067c0 0.294 0.239 0.533 0.533 0.533s0.533-0.239 0.533-0.533v-1.067c0-0.295-0.239-0.533-0.533-0.533z"></path>
</symbol>
<symbol id="icon-facebook" viewBox="0 0 15 32">
<path  d="M13.649 15.969h-4.218v16.031h-6.391v-16.031h-3.040v-5.634h3.040v-3.646c0-2.607 1.194-6.69 6.448-6.69l4.734 0.021v5.469h-3.435c-0.563 0-1.356 0.292-1.356 1.536v3.316h4.776l-0.558 5.629z"></path>
</symbol>
<symbol id="icon-fridge" viewBox="0 0 32 32">
<path fill="#fff" style="fill: var(--color1, #fff)" d="M25.066 10.721v-9.034c-0-0.447-0.178-0.876-0.495-1.193s-0.745-0.494-1.193-0.495h-14.833c-0.447 0.001-0.876 0.178-1.193 0.495s-0.494 0.745-0.495 1.193v9.034c0 0.236 0.050 0.469 0.146 0.684s0.236 0.408 0.412 0.566c-0.175 0.158-0.316 0.35-0.412 0.566s-0.146 0.448-0.146 0.684v15.283c0.001 0.447 0.178 0.876 0.495 1.193s0.745 0.494 1.193 0.495h0.229v1.343c0 0.116 0.046 0.227 0.128 0.309s0.193 0.128 0.309 0.128h3.125c0.116 0 0.227-0.046 0.309-0.128s0.128-0.193 0.128-0.309v-1.343h6.375v1.343c0 0.116 0.046 0.227 0.128 0.309s0.193 0.128 0.309 0.128h3.125c0.116 0 0.227-0.046 0.309-0.128s0.128-0.193 0.128-0.309v-1.343h0.229c0.447-0.001 0.876-0.178 1.193-0.495s0.494-0.745 0.495-1.193v-15.283c-0-0.236-0.050-0.469-0.146-0.684s-0.237-0.408-0.412-0.566c0.175-0.158 0.316-0.35 0.412-0.566s0.146-0.448 0.146-0.684zM11.899 31.096h-2.25v-0.905h2.25v0.905zM22.274 31.096h-2.25v-0.905h2.25v0.905zM24.191 13.221v15.283c-0 0.215-0.086 0.422-0.238 0.574s-0.359 0.238-0.574 0.238h-14.833c-0.215-0-0.422-0.086-0.574-0.238s-0.238-0.359-0.238-0.574v-15.283c0-0.215 0.086-0.422 0.238-0.574s0.359-0.238 0.574-0.238h14.833c0.215 0 0.422 0.086 0.574 0.238s0.238 0.359 0.238 0.574zM8.545 11.534c-0.215-0-0.422-0.086-0.574-0.238s-0.238-0.359-0.238-0.574v-9.034c0-0.215 0.086-0.422 0.238-0.574s0.359-0.238 0.574-0.238h14.833c0.215 0 0.422 0.086 0.574 0.238s0.238 0.359 0.238 0.574v9.034c-0 0.215-0.086 0.422-0.238 0.574s-0.359 0.238-0.574 0.238h-14.833z"></path>
<path fill="#fff" style="fill: var(--color1, #fff)" d="M22.165 3.171h-1.625c-0.116 0-0.227 0.046-0.309 0.128s-0.128 0.193-0.128 0.309v5.25c0 0.116 0.046 0.227 0.128 0.309s0.193 0.128 0.309 0.128h1.625c0.116 0 0.227-0.046 0.309-0.128s0.128-0.193 0.128-0.309v-5.25c0-0.116-0.046-0.227-0.128-0.309s-0.193-0.128-0.309-0.128zM21.727 8.42h-0.75v-4.375h0.75v4.375z"></path>
<path fill="#fff" style="fill: var(--color1, #fff)" d="M20.54 20.19h1.625c0.116 0 0.227-0.046 0.309-0.128s0.128-0.193 0.128-0.309v-5.25c0-0.116-0.046-0.227-0.128-0.309s-0.193-0.128-0.309-0.128h-1.625c-0.116 0-0.227 0.046-0.309 0.128s-0.128 0.193-0.128 0.309v5.25c0 0.116 0.046 0.227 0.128 0.309s0.193 0.128 0.309 0.128zM20.977 14.94h0.75v4.375h-0.75v-4.375z"></path>
</symbol>
<symbol id="icon-instagram" viewBox="0 0 32 32">
<path  d="M16.005 7.784c-4.537 0-8.211 3.677-8.211 8.211 0 4.537 3.677 8.211 8.211 8.211 4.537 0 8.211-3.677 8.211-8.211 0-4.537-3.677-8.211-8.211-8.211zM16.005 21.324c-2.945 0-5.329-2.385-5.329-5.329s2.385-5.329 5.329-5.329 5.329 2.385 5.329 5.329c0.001 2.944-2.384 5.329-5.329 5.329z"></path>
<path  d="M22.598 0.101c-2.944-0.137-10.236-0.131-13.183 0-2.589 0.121-4.873 0.747-6.715 2.588-3.077 3.077-2.684 7.224-2.684 13.305 0 6.224-0.347 10.275 2.684 13.305 3.089 3.088 7.296 2.684 13.305 2.684 6.165 0 8.293 0.004 10.473-0.84 2.964-1.151 5.201-3.8 5.42-8.559 0.139-2.945 0.131-10.236 0-13.183-0.264-5.617-3.279-9.024-9.301-9.301zM27.257 27.264c-2.017 2.017-4.816 1.837-11.291 1.837-6.667 0-9.34 0.099-11.291-1.857-2.247-2.236-1.84-5.827-1.84-11.271 0-7.367-0.756-12.672 6.637-13.051 1.699-0.060 2.199-0.080 6.475-0.080l0.060 0.040c7.105 0 12.68-0.744 13.015 6.648 0.076 1.687 0.093 2.193 0.093 6.463-0.001 6.589 0.124 9.279-1.859 11.271z"></path>
<path d="M24.541 9.378c1.060 0 1.919-0.859 1.919-1.919s-0.859-1.919-1.919-1.919c-1.060 0-1.919 0.859-1.919 1.919s0.859 1.919 1.919 1.919z"></path>
</symbol>
<symbol id="icon-kettle" viewBox="0 0 32 32">
<path fill="#fff" style="fill: var(--color1, #fff)" d="M30.62 16.817l-1.412-4.344c-0.712-2.189-1.985-4.169-3.682-5.724s-3.78-2.652-6.023-3.17l-3.101-0.717c-0.001-0-8.604-1.872-8.604-1.872-0.254-0.055-0.503 0.106-0.559 0.359s0.106 0.504 0.359 0.559l8.592 1.869c0 0 0.018 0.004 0.018 0.004 1.96 0.432 3.41 2.057 3.609 4.048 0.243 2.434 0.771 5.14 1.568 8.044 1.060 3.863 1.008 7.092 0.778 9.121-0.181 1.595-0.497 2.718-0.659 3.221h-6.27c-0.259 0-0.47 0.21-0.47 0.47s0.21 0.47 0.47 0.47h6.337l0.994 1.666c0.041 0.069 0.019 0.13 0.002 0.16s-0.058 0.081-0.138 0.081h-19.958c-0.081 0-0.121-0.050-0.138-0.081s-0.040-0.091 0.002-0.16l0.994-1.667h10.028c0.259 0 0.47-0.21 0.47-0.47s-0.21-0.47-0.47-0.47h-9.947c-0.757-2.505-1.046-4.735-0.905-6.989 0.131-2.098 0.618-3.957 1.132-5.925 0.641-2.451 1.304-4.986 1.37-8.26 0.037-1.812-1.067-4.173-1.999-5.835-0.063-0.158 0.021-0.27 0.191-0.256l2.566 0.558c0.254 0.055 0.504-0.106 0.559-0.359s-0.106-0.504-0.359-0.559l-2.566-0.559c-0.903-0.232-1.695 0.837-1.209 1.633 0.717 1.277 1.914 3.672 1.88 5.357-0.064 3.163-0.713 5.643-1.34 8.041-1.027 3.927-1.998 7.639-0.177 13.56l-1.023 1.716c-0.205 0.344-0.209 0.757-0.012 1.105s0.555 0.556 0.955 0.556h19.958c0.4 0 0.757-0.208 0.955-0.556s0.193-0.761-0.012-1.105l-1.017-1.705c0.163-0.476 0.529-1.693 0.737-3.494 0.244-2.119 0.304-5.49-0.801-9.516-0.707-2.578-1.197-4.992-1.461-7.191 2.009 0.701 3.614 2.259 4.365 4.276 0.208 0.576 1.1 0.238 0.88-0.328-0.902-2.422-2.895-4.26-5.366-4.971-0.178-1.119-0.687-2.127-1.43-2.92l0.013 0.003c2.085 0.482 4.022 1.501 5.599 2.948s2.761 3.286 3.423 5.322l1.412 4.344c0.089 0.273 0.043 0.562-0.126 0.795s-0.43 0.365-0.717 0.365c-0.368 0-0.702-0.232-0.83-0.577l-1.399-3.756c-0.091-0.243-0.361-0.367-0.604-0.276s-0.367 0.361-0.276 0.604l1.399 3.755c0.265 0.711 0.952 1.188 1.71 1.188 0.591 0 1.129-0.274 1.477-0.752s0.442-1.075 0.259-1.637z"></path>
<path fill="#fff" style="fill: var(--color1, #fff)" d="M14.867 23.265c1.135 0 2.059-0.924 2.059-2.059v-10.478c0-1.135-0.924-2.059-2.059-2.059s-2.059 0.924-2.059 2.059v10.478c-0 1.135 0.924 2.059 2.059 2.059zM14.867 9.607c0.618 0 1.121 0.503 1.121 1.121v10.478c0 0.618-0.503 1.121-1.121 1.121s-1.121-0.503-1.121-1.121v-0.496h0.772c0.259 0 0.469-0.21 0.469-0.469s-0.21-0.469-0.469-0.469h-0.772v-1.705h0.772c0.259 0 0.469-0.21 0.469-0.469s-0.21-0.469-0.469-0.469h-0.772v-1.705h0.772c0.259 0 0.469-0.21 0.469-0.469s-0.21-0.469-0.469-0.469h-0.772v-1.705h0.772c0.259 0 0.469-0.21 0.469-0.469s-0.21-0.469-0.469-0.469h-0.772v-1.116c-0-0.618 0.503-1.121 1.121-1.121z"></path>
</symbol>
<symbol id="icon-kitchen" viewBox="0 0 32 32">
<path fill="#fff" style="fill: var(--color1, #fff)" d="M31.467 6.933h-11.733c-0.295 0-0.533 0.239-0.533 0.533v12.8h-2.667v-0.533h0.533c0.295 0 0.533-0.239 0.533-0.533s-0.239-0.533-0.533-0.533h-5.333c-0.295 0-0.533 0.239-0.533 0.533s0.239 0.533 0.533 0.533h0.533v0.533h-5.333v-0.533h0.533c0.295 0 0.533-0.239 0.533-0.533s-0.239-0.533-0.533-0.533h-5.333c-0.295 0-0.533 0.239-0.533 0.533s0.239 0.533 0.533 0.533h0.533v0.533h-2.133c-0.295 0-0.533 0.239-0.533 0.533v10.667c0 0.295 0.239 0.533 0.533 0.533h30.933c0.295 0 0.533-0.239 0.533-0.533v-24c0-0.295-0.239-0.533-0.533-0.533zM13.333 19.733h2.133v0.533h-2.133v-0.533zM3.733 19.733h2.133v0.533h-2.133v-0.533zM8.533 30.933h-7.467v-6.4h7.467v6.4zM8.533 23.467h-7.467v-2.133h7.467v2.133zM19.2 30.933h-9.6v-9.6h9.6v9.6zM30.933 30.933h-10.667v-14.4h10.667v14.4zM30.933 15.467h-10.667v-7.467h10.667v7.467z"></path>
<path fill="#fff" style="fill: var(--color1, #fff)" d="M11.2 29.867h6.4c0.295 0 0.533-0.239 0.533-0.533v-6.4c0-0.295-0.239-0.533-0.533-0.533h-6.4c-0.295 0-0.533 0.239-0.533 0.533v6.4c0 0.295 0.239 0.533 0.533 0.533zM11.733 23.467h5.333v5.333h-5.333v-5.333z"></path>
<path fill="#fff" style="fill: var(--color1, #fff)" d="M21.333 14.933c0.295 0 0.533-0.239 0.533-0.533v-2.133c0-0.295-0.239-0.533-0.533-0.533s-0.533 0.239-0.533 0.533v2.133c0 0.295 0.239 0.533 0.533 0.533z"></path>
<path fill="#fff" style="fill: var(--color1, #fff)" d="M21.333 20.267c0.295 0 0.533-0.239 0.533-0.533v-2.133c0-0.295-0.239-0.533-0.533-0.533s-0.533 0.239-0.533 0.533v2.133c0 0.295 0.239 0.533 0.533 0.533z"></path>
<path fill="#fff" style="fill: var(--color1, #fff)" d="M1.257 9.476c0.096 0.080 0.217 0.124 0.343 0.124h16c0.295 0 0.534-0.238 0.534-0.533 0-0.125-0.044-0.247-0.124-0.343l-5.333-6.4c-0.102-0.122-0.252-0.192-0.41-0.191h-0.533v-1.6c0-0.295-0.239-0.533-0.533-0.533h-3.2c-0.295 0-0.533 0.239-0.533 0.533v1.6h-0.533c-0.158-0-0.309 0.070-0.41 0.191l-5.333 6.4c-0.189 0.226-0.159 0.562 0.067 0.751zM8.534 1.067h2.133v1.067h-2.133v-1.067zM7.184 3.2h4.833l4.445 5.333h-13.723l4.445-5.333z"></path>
</symbol>
<symbol id="icon-master" viewBox="0 0 32 32">
<path fill="#e9ece0" style="fill: var(--color3, #e9ece0)" d="M22.16 6.345c-2.443 0.001-4.67 0.927-6.348 2.448-1.68-1.519-3.905-2.446-6.346-2.446-0.020 0-0.041 0-0.061 0-5.197 0.034-9.405 4.262-9.405 9.466 0 5.225 4.241 9.465 9.465 9.465 2.441 0 4.666-0.925 6.345-2.446-0.351-0.317-0.668-0.667-0.968-1.034h1.955c-0.295 0.361-0.616 0.699-0.961 1.014h-0.001c-0.008 0.009-0.016 0.014-0.024 0.021 1.68 1.522 3.909 2.449 6.353 2.448 5.228-0.002 9.464-4.242 9.463-9.469 0-0.002 0-0.003 0-0.005 0.001-5.227-4.238-9.465-9.466-9.464zM14.951 9.771h1.799c0.265 0.321 0.511 0.66 0.735 1.014h-3.21c0.207-0.338 0.434-0.686 0.676-1.014zM13.716 11.778h4.315c0.153 0.328 0.289 0.667 0.408 1.014h-5.234c0.052-0.098 0.235-0.492 0.511-1.014zM3.864 18.224l0.574-3.619-1.295 3.619h-0.694l-0.090-3.619-0.613 3.619h-0.972l0.806-4.8h1.471l0.052 2.945 0.993-2.945h1.595l-0.795 4.8h-1.031zM7.303 18.217l0.033-0.383c-0.016 0.002-0.323 0.463-1.034 0.463-0.372 0-0.973-0.203-0.973-1.086 0-1.123 0.916-1.495 1.787-1.495 0.137 0 0.433 0.025 0.433 0.025s0.033-0.069 0.033-0.254c0-0.305-0.274-0.347-0.65-0.347-0.662 0-1.098 0.177-1.098 0.177l0.146-0.869c0 0 0.53-0.222 1.221-0.222 0.357 0 1.384 0.038 1.384 1.215l-0.396 2.776h-0.888zM11.053 16.994c0 1.339-1.298 1.282-1.524 1.282-0.846 0-1.107-0.117-1.131-0.123l0.135-0.882c0.001-0.008 0.425 0.153 0.895 0.153 0.272 0 0.624-0.027 0.624-0.351 0-0.486-1.262-0.37-1.262-1.524 0-1.018 0.756-1.316 1.502-1.316 0.576 0 0.93 0.079 0.93 0.079l-0.127 0.889c0 0-0.547-0.045-0.688-0.045-0.359 0-0.554 0.078-0.554 0.329-0.001 0.504 1.2 0.257 1.2 1.508zM12.611 17.345c0.089 0 0.191-0.031 0.26-0.031l-0.126 0.856c-0.101 0.028-0.388 0.13-0.756 0.133-0.47 0.004-0.803-0.259-0.803-0.854 0-0.4 0.573-3.693 0.595-3.715h1.008l-0.103 0.589h0.503l-0.129 0.949h-0.534l-0.283 1.748c-0.022 0.139 0.017 0.325 0.368 0.325zM14.828 14.213c1.106 0 1.437 0.81 1.437 1.474 0 0.266-0.133 0.919-0.133 0.919h-2.048c0 0-0.189 0.807 0.893 0.807 0.507 0 1.070-0.248 1.070-0.248l-0.178 0.971c0 0-0.325 0.166-1.065 0.166-0.801 0-1.741-0.339-1.741-1.763 0.001-1.234 0.75-2.326 1.764-2.326zM17.497 20.824h-3.358c-0.204-0.327-0.395-0.662-0.559-1.014h4.469c-0.165 0.35-0.349 0.688-0.552 1.014zM17.271 18.232h-1.034l0.629-3.907h0.938l-0.090 0.566c0 0 0.334-0.616 0.786-0.616 0.131 0 0.195 0.013 0.195 0.013-0.134 0.273-0.252 0.523-0.375 1.169-0.7-0.248-0.754 1.106-1.048 2.774zM21.213 18.171c0 0-0.542 0.138-0.882 0.138-1.203 0-1.814-0.83-1.814-2.087 0-1.896 1.132-2.905 2.295-2.905 0.526 0 1.135 0.247 1.135 0.247l-0.165 1.068c0 0-0.412-0.288-0.925-0.288-0.686 0-1.301 0.654-1.301 1.844 0 0.586 0.287 1.132 1.002 1.132 0.34 0 0.833-0.247 0.833-0.247l-0.18 1.1zM23.639 18.218l0.034-0.386c-0.016 0.002-0.323 0.463-1.034 0.463-0.372 0-0.973-0.203-0.973-1.086 0-1.123 0.916-1.495 1.787-1.495 0.137 0 0.434 0.025 0.434 0.025s0.034-0.068 0.034-0.253c0-0.305-0.274-0.347-0.65-0.347-0.662 0-1.098 0.177-1.098 0.177l0.146-0.869c0 0 0.53-0.222 1.221-0.222 0.357 0 1.384 0.038 1.384 1.215l-0.396 2.775c-0.001 0.002-0.889 0.002-0.889 0.002zM25.733 18.232h-1.034l0.629-3.907h0.939l-0.090 0.566c0 0 0.335-0.616 0.786-0.616 0.131 0 0.194 0.013 0.194 0.013-0.133 0.273-0.253 0.523-0.375 1.169-0.701-0.248-0.754 1.106-1.049 2.774zM28.822 18.221l0.044-0.36c0 0-0.334 0.422-0.939 0.422-0.838 0-1.249-0.809-1.249-1.636 0-1.279 0.769-2.393 1.693-2.393 0.594 0.001 0.974 0.526 0.974 0.526l0.218-1.349 1.010-0.002-0.771 4.792h-0.98zM30.815 18.086c-0.027 0.048-0.065 0.086-0.113 0.114-0.048 0.027-0.099 0.041-0.152 0.041-0.052 0-0.103-0.014-0.151-0.041-0.048-0.029-0.086-0.066-0.113-0.114s-0.041-0.099-0.041-0.151c0-0.054 0.014-0.105 0.041-0.153s0.067-0.087 0.114-0.114c0.050-0.027 0.099-0.041 0.15-0.041 0.052 0 0.102 0.014 0.15 0.041 0.050 0.027 0.087 0.064 0.115 0.114s0.041 0.1 0.041 0.153-0.013 0.103-0.041 0.151z"></path>
<path fill="#e9ece0" style="fill: var(--color3, #e9ece0)" d="M30.734 20.974c-0.007-0.005-0.012-0.012-0.023-0.016s-0.027-0.006-0.052-0.006h-0.061v0.098h0.065c0.031 0 0.051-0.003 0.063-0.014 0.011-0.009 0.016-0.020 0.016-0.036 0-0.010-0.003-0.018-0.008-0.027z"></path>
<path fill="#e9ece0" style="fill: var(--color3, #e9ece0)" d="M30.945 20.916c-0.028-0.051-0.067-0.087-0.116-0.114s-0.099-0.041-0.15-0.041c-0.052 0-0.102 0.014-0.15 0.041s-0.088 0.064-0.115 0.114c-0.028 0.048-0.041 0.099-0.041 0.151s0.014 0.104 0.041 0.151c0.028 0.048 0.066 0.087 0.114 0.114s0.099 0.041 0.153 0.041c0.052 0 0.103-0.014 0.151-0.041s0.086-0.066 0.113-0.114c0.027-0.048 0.041-0.099 0.041-0.151s-0.014-0.104-0.041-0.151zM30.757 21.237l-0.029-0.052c-0.023-0.041-0.042-0.067-0.056-0.078-0.009-0.007-0.023-0.012-0.042-0.012h-0.031v0.14h-0.054v-0.33h0.114c0.039 0 0.067 0.003 0.083 0.010 0.018 0.007 0.033 0.016 0.042 0.032 0.010 0.015 0.015 0.031 0.015 0.048 0 0.024-0.009 0.044-0.025 0.063-0.017 0.017-0.041 0.028-0.069 0.030 0.012 0.004 0.021 0.010 0.028 0.018 0.014 0.013 0.029 0.035 0.049 0.065l0.041 0.065h-0.066z"></path>
<path fill="#e9ece0" style="fill: var(--color3, #e9ece0)" d="M7.198 16.464c-0.739 0-0.888 0.332-0.888 0.608 0 0.142 0.082 0.38 0.394 0.38 0.607 0 0.733-0.795 0.713-0.965-0.029-0.006-0.047-0.023-0.219-0.023z"></path>
<path fill="#e9ece0" style="fill: var(--color3, #e9ece0)" d="M14.832 15.114c-0.549 0-0.655 0.625-0.655 0.691h1.119c0-0.050 0.105-0.691-0.464-0.691z"></path>
<path fill="#e9ece0" style="fill: var(--color3, #e9ece0)" d="M28.545 15.223c-0.443 0-0.794 0.515-0.793 1.296 0 0.477 0.17 0.782 0.533 0.782 0.546 0 0.809-0.712 0.809-1.243 0-0.586-0.186-0.835-0.549-0.835z"></path>
<path fill="#e9ece0" style="fill: var(--color3, #e9ece0)" d="M30.769 17.808c-0.023-0.041-0.055-0.072-0.095-0.095s-0.082-0.034-0.125-0.034c-0.042 0-0.084 0.012-0.125 0.034-0.041 0.021-0.073 0.054-0.095 0.095s-0.035 0.085-0.035 0.127c0 0.044 0.012 0.087 0.033 0.127 0.024 0.041 0.055 0.071 0.095 0.095 0.041 0.022 0.082 0.035 0.126 0.035s0.087-0.013 0.126-0.035c0.041-0.023 0.072-0.054 0.095-0.095s0.033-0.083 0.033-0.127c0-0.043-0.012-0.086-0.035-0.127zM30.627 18.103l-0.029-0.051c-0.023-0.041-0.041-0.067-0.055-0.077-0.011-0.009-0.024-0.012-0.043-0.012h-0.030v0.14h-0.055v-0.329h0.114c0.039 0 0.067 0.003 0.084 0.010 0.016 0.006 0.031 0.017 0.042 0.031s0.015 0.031 0.015 0.048c0 0.024-0.009 0.044-0.026 0.063s-0.041 0.027-0.068 0.030c0.013 0.005 0.022 0.011 0.028 0.017 0.014 0.014 0.029 0.033 0.048 0.065l0.041 0.065h-0.065z"></path>
<path fill="#e9ece0" style="fill: var(--color3, #e9ece0)" d="M23.536 16.464c-0.739 0-0.888 0.332-0.888 0.608 0 0.142 0.081 0.38 0.394 0.38 0.607 0 0.732-0.795 0.713-0.965-0.029-0.006-0.048-0.023-0.219-0.023z"></path>
<path fill="#e9ece0" style="fill: var(--color3, #e9ece0)" d="M30.605 17.84c-0.005-0.007-0.012-0.012-0.022-0.016-0.011-0.003-0.027-0.007-0.054-0.007v0.001h-0.059v0.099h0.065c0.031 0 0.051-0.004 0.063-0.014 0.010-0.010 0.016-0.022 0.016-0.037 0-0.011-0.003-0.018-0.009-0.027z"></path>
</symbol>
<symbol id="icon-parking" viewBox="0 0 32 32">
<path fill="#fff" style="fill: var(--color1, #fff)" d="M16 0c-6.764 0-12.267 5.79-12.267 12.907 0 6.974 11.404 18.452 11.89 18.938 0.104 0.103 0.241 0.156 0.377 0.156s0.273-0.052 0.377-0.156c0.485-0.485 11.89-11.963 11.89-18.937 0-7.117-5.503-12.907-12.267-12.907zM16 30.703c-1.994-2.068-11.2-11.938-11.2-17.796 0-6.529 5.025-11.84 11.2-11.84s11.2 5.311 11.2 11.84c0 5.856-9.206 15.727-11.2 17.796z"></path>
<path fill="#fff" style="fill: var(--color1, #fff)" d="M16 2.667c-5.293 0-9.6 4.307-9.6 9.6s4.307 9.6 9.6 9.6c5.293 0 9.6-4.307 9.6-9.6s-4.307-9.6-9.6-9.6zM16 20.8c-4.706 0-8.533-3.828-8.533-8.533s3.828-8.533 8.533-8.533c4.706 0 8.533 3.828 8.533 8.533s-3.828 8.533-8.533 8.533z"></path>
<path fill="#fff" style="fill: var(--color1, #fff)" d="M16 26.133c-0.294 0-0.533 0.239-0.533 0.533v4.8c0 0.294 0.239 0.533 0.533 0.533s0.533-0.239 0.533-0.533v-4.8c0-0.294-0.239-0.533-0.533-0.533z"></path>
<path fill="#fff" style="fill: var(--color1, #fff)" d="M17.067 8.533h-2.133c-0.294 0-0.533 0.239-0.533 0.533v2.133c0 0.294 0.239 0.533 0.533 0.533h2.133c0.882 0 1.6-0.718 1.6-1.6s-0.718-1.6-1.6-1.6zM17.067 10.667h-1.6v-1.067h1.6c0.294 0 0.533 0.239 0.533 0.533s-0.239 0.533-0.533 0.533z"></path>
<path fill="#fff" style="fill: var(--color1, #fff)" d="M17.067 6.4h-4.267c-0.294 0-0.533 0.239-0.533 0.533v10.667c0 0.294 0.239 0.533 0.533 0.533h2.133c0.294 0 0.533-0.239 0.533-0.533v-3.733h1.6c2.059 0 3.733-1.675 3.733-3.733s-1.675-3.733-3.733-3.733zM17.067 12.8h-2.133c-0.294 0-0.533 0.239-0.533 0.533v3.733h-1.067v-9.6h3.733c1.47 0 2.667 1.196 2.667 2.667s-1.196 2.667-2.667 2.667z"></path>
<path fill="#fff" style="fill: var(--color1, #fff)" d="M31.467 30.933h-2.133c-0.294 0-0.533 0.239-0.533 0.533s0.239 0.533 0.533 0.533h2.133c0.294 0 0.533-0.239 0.533-0.533s-0.239-0.533-0.533-0.533z"></path>
<path fill="#fff" style="fill: var(--color1, #fff)" d="M12.8 30.933h-12.267c-0.294 0-0.533 0.239-0.533 0.533s0.239 0.533 0.533 0.533h12.267c0.294 0 0.533-0.239 0.533-0.533s-0.239-0.533-0.533-0.533z"></path>
<path fill="#fff" style="fill: var(--color1, #fff)" d="M25.6 30.933h-6.4c-0.294 0-0.533 0.239-0.533 0.533s0.239 0.533 0.533 0.533h6.4c0.294 0 0.533-0.239 0.533-0.533s-0.239-0.533-0.533-0.533z"></path>
</symbol>
<symbol id="icon-paypal" viewBox="0 0 32 32">
<path fill="#e9ece0" style="fill: var(--color3, #e9ece0)" d="M5.669 12.928c-0.104-0.208-0.267-0.379-0.471-0.508-0.212-0.13-0.462-0.221-0.749-0.275-0.291-0.053-0.627-0.077-1.017-0.080l-1.799 0.001c-0.187 0.002-0.37 0.148-0.414 0.329l-1.21 5.272c-0.044 0.178 0.073 0.328 0.26 0.328h0.862c0.187 0 0.372-0.145 0.413-0.328l0.296-1.28c0.040-0.178 0.224-0.327 0.413-0.327h0.247c1.054-0.001 1.869-0.216 2.455-0.648 0.589-0.432 0.88-1.002 0.88-1.709-0.001-0.309-0.051-0.569-0.166-0.776zM3.811 14.65c-0.26 0.191-0.622 0.286-1.089 0.286h-0.211c-0.188 0-0.302-0.148-0.262-0.329l0.259-1.119c0.036-0.179 0.225-0.328 0.41-0.327l0.282-0.002c0.329 0 0.581 0.057 0.749 0.168 0.166 0.109 0.25 0.283 0.248 0.513 0.005 0.35-0.129 0.619-0.388 0.81z"></path>
<path fill="#e9ece0" style="fill: var(--color3, #e9ece0)" d="M30.227 12.478l-0.054 0.016-0.072 0.010-0.088-0.014-0.045-0.044-0.021-0.069-0.001-0.104v-0.383h0.288v-0.119h-0.288v-0.239h-0.142v0.239h-0.097v0.119h0.097v0.446l0.067 0.221 0.196 0.070 0.082-0.007 0.087-0.017v-0.126h-0.008z"></path>
<path fill="#e9ece0" style="fill: var(--color3, #e9ece0)" d="M31.563 11.833l-0.206-0.085-0.152 0.031-0.154 0.104-0.090-0.1-0.146-0.034-0.14 0.031-0.132 0.085v-0.093h-0.14v0.838h0.139v-0.626l0.117-0.073 0.117-0.029 0.095 0.017 0.047 0.048 0.021 0.080 0.007 0.104v0.479h0.14v-0.536l-0.003-0.045-0.003-0.041 0.119-0.076 0.118-0.030 0.092 0.017 0.050 0.048 0.018 0.081 0.009 0.102v0.479h0.141v-0.544l-0.066-0.234z"></path>
<path fill="#e9ece0" style="fill: var(--color3, #e9ece0)" d="M9.823 13.681c-0.325-0.183-0.838-0.275-1.54-0.275-0.347 0-0.693 0.027-1.042 0.081-0.258 0.040-0.283 0.047-0.442 0.082-0.328 0.072-0.379 0.398-0.379 0.398l-0.105 0.434c-0.060 0.277 0.1 0.266 0.166 0.243 0.143-0.043 0.223-0.087 0.515-0.152 0.279-0.063 0.574-0.111 0.807-0.108 0.344 0 0.608 0.036 0.784 0.11 0.173 0.075 0.26 0.205 0.26 0.392l-0.015 0.122-0.124 0.077c-0.489 0.031-0.842 0.076-1.271 0.138-0.419 0.058-0.787 0.161-1.092 0.301-0.328 0.144-0.572 0.338-0.742 0.585-0.164 0.248-0.247 0.548-0.247 0.901 0 0.332 0.119 0.606 0.351 0.818 0.233 0.208 0.54 0.31 0.908 0.31 0.233-0.001 0.413-0.019 0.541-0.050l0.417-0.144 0.353-0.196 0.325-0.215 0.004 0.006-0.033 0.138-0.002 0.006v0.001c-0.035 0.168 0.066 0.306 0.23 0.323l0.003 0.004h0.8l0.011-0.005c0.172-0.020 0.333-0.158 0.371-0.323l0.628-2.719 0.033-0.222 0.015-0.208c0.002-0.385-0.164-0.671-0.489-0.853zM8.434 16.738l-0.134 0.177-0.339 0.175c-0.159 0.065-0.311 0.097-0.45 0.097-0.212 0-0.378-0.031-0.491-0.093l-0.166-0.323c0-0.175 0.040-0.314 0.126-0.42l0.365-0.248c0.156-0.053 0.347-0.097 0.568-0.128 0.197-0.024 0.586-0.069 0.637-0.070l0.060 0.105c-0.012 0.060-0.122 0.521-0.175 0.73z"></path>
<path fill="#e9ece0" style="fill: var(--color3, #e9ece0)" d="M25.471 13.685c-0.327-0.183-0.84-0.275-1.539-0.275-0.347 0-0.693 0.027-1.042 0.083-0.259 0.038-0.284 0.046-0.444 0.080-0.327 0.071-0.378 0.399-0.378 0.399l-0.105 0.433c-0.059 0.277 0.097 0.264 0.169 0.243 0.144-0.043 0.221-0.085 0.511-0.152 0.278-0.063 0.575-0.109 0.809-0.108 0.343 0 0.607 0.037 0.782 0.111 0.174 0.075 0.26 0.206 0.26 0.391l-0.013 0.121-0.123 0.078c-0.494 0.030-0.848 0.075-1.272 0.137-0.418 0.058-0.787 0.16-1.093 0.301-0.327 0.145-0.573 0.339-0.742 0.586-0.166 0.248-0.247 0.548-0.247 0.897 0 0.334 0.118 0.609 0.353 0.819 0.234 0.208 0.538 0.312 0.906 0.312 0.232-0.003 0.412-0.018 0.54-0.051l0.416-0.142 0.356-0.196 0.323-0.217 0.006 0.007-0.029 0.139-0.003 0.003 0.001 0.003c-0.039 0.168 0.063 0.307 0.229 0.323l0.001 0.003h0.015c0.109 0 0.484 0 0.663 0h0.122l0.013-0.004c0.17-0.021 0.331-0.159 0.366-0.325l0.63-2.715 0.033-0.223 0.018-0.208c0.001-0.384-0.164-0.668-0.492-0.851zM24.085 16.742l-0.14 0.179-0.336 0.174c-0.159 0.064-0.311 0.097-0.449 0.097-0.219 0-0.381-0.031-0.49-0.094l-0.168-0.322c0-0.176 0.041-0.313 0.123-0.422 0.083-0.102 0.211-0.186 0.369-0.248 0.154-0.053 0.345-0.095 0.567-0.127 0.196-0.024 0.584-0.070 0.634-0.071l0.061 0.105c-0.009 0.060-0.12 0.52-0.171 0.729z"></path>
<path fill="#e9ece0" style="fill: var(--color3, #e9ece0)" d="M21.314 12.947c-0.108-0.209-0.27-0.378-0.474-0.509-0.21-0.13-0.458-0.222-0.749-0.275-0.285-0.051-0.626-0.078-1.013-0.079l-1.801 0.001c-0.188 0.003-0.368 0.149-0.411 0.328l-1.212 5.274c-0.044 0.179 0.077 0.327 0.26 0.327l0.863-0.001c0.183 0.001 0.371-0.146 0.414-0.326l0.292-1.281c0.043-0.178 0.228-0.328 0.414-0.327h0.247c1.055 0 1.872-0.217 2.461-0.647 0.582-0.435 0.876-1.004 0.876-1.711-0.003-0.308-0.056-0.568-0.166-0.774zM19.456 14.672c-0.26 0.187-0.622 0.282-1.087 0.282h-0.215c-0.185 0.002-0.305-0.149-0.264-0.328l0.261-1.117c0.038-0.179 0.225-0.329 0.412-0.327l0.279-0.002c0.331 0.002 0.58 0.056 0.749 0.167s0.248 0.284 0.25 0.513c0.002 0.35-0.128 0.62-0.387 0.812z"></path>
<path fill="#e9ece0" style="fill: var(--color3, #e9ece0)" d="M28.701 12.455c0.040-0.18-0.073-0.326-0.259-0.324h-0.772c-0.158 0-0.301 0.117-0.37 0.262l-0.043 0.066-0.039 0.171-1.079 4.903-0.035 0.151 0.001 0.004c-0.036 0.161 0.063 0.283 0.216 0.306l0.013 0.018h0.801c0.157 0 0.304-0.119 0.371-0.266l0.041-0.063 1.153-5.227-0.003-0.001z"></path>
<path fill="#e9ece0" style="fill: var(--color3, #e9ece0)" d="M15.678 13.473c-0.204 0.002-1.033 0-1.033 0-0.186 0-0.424 0.15-0.542 0.329 0 0-1.234 2.117-1.353 2.33l-0.143-0.002-0.384-2.313c-0.043-0.182-0.233-0.338-0.469-0.338l-0.772 0.001c-0.186 0-0.3 0.148-0.258 0.329 0 0 0.586 3.335 0.703 4.12 0.055 0.433-0.007 0.51-0.007 0.51l-0.763 1.329c-0.113 0.181-0.052 0.328 0.133 0.328l0.892-0.001c0.186 0 0.43-0.146 0.54-0.328l3.432-5.805c0 0.001 0.33-0.496 0.023-0.489z"></path>
</symbol>
<symbol id="icon-shower" viewBox="0 0 32 32">
<path fill="#fff" style="fill: var(--color1, #fff)" d="M26.933 0c-0.884 0-1.6 0.716-1.6 1.6v0.533h-11.733c-1.472 0.002-2.665 1.195-2.667 2.667v2.667h-1.067c-0.884 0-1.6 0.716-1.6 1.6v1.837c-2.323 1.432-3.737 3.967-3.733 6.696v0.631c-0.637 0.225-1.064 0.826-1.067 1.502v1.067c0 0.295 0.239 0.533 0.533 0.533h17.067c0.295 0 0.533-0.239 0.533-0.533v-1.067c-0.003-0.676-0.43-1.277-1.067-1.502v-0.631c0.003-2.124-0.841-4.161-2.347-5.659-0.418-0.403-0.884-0.755-1.387-1.046v-1.828c0-0.884-0.716-1.6-1.6-1.6h-1.067v-1.6c0-0.295 0.239-0.533 0.533-0.533h10.667v1.067c0 0.884 0.716 1.6 1.6 1.6h1.6v-8h-1.6zM20.533 19.733v0.533h-16v-0.533c0-0.295 0.239-0.533 0.533-0.533h14.933c0.295 0 0.533 0.239 0.533 0.533zM17.435 12.697c1.303 1.299 2.035 3.064 2.031 4.903v0.533h-13.867v-0.533c-0.002-2.41 1.271-4.641 3.346-5.867h7.179c0.477 0.262 0.918 0.586 1.31 0.963zM15.2 8.533c0.295 0 0.533 0.239 0.533 0.533v1.6h-6.4v-1.6c0-0.295 0.239-0.533 0.533-0.533h5.333zM25.333 4.267h-10.667c-0.884 0-1.6 0.716-1.6 1.6v1.6h-1.067v-2.667c0-0.884 0.716-1.6 1.6-1.6h11.733v1.067zM27.467 6.933h-0.533c-0.295 0-0.533-0.239-0.533-0.533v-4.8c0-0.295 0.239-0.533 0.533-0.533h0.533v5.867z"></path>
<path fill="#fff" style="fill: var(--color1, #fff)" d="M12.533 22.4c-0.295 0-0.533 0.239-0.533 0.533v2.133c0 0.295 0.239 0.533 0.533 0.533s0.533-0.239 0.533-0.533v-2.133c0-0.295-0.239-0.533-0.533-0.533z"></path>
<path fill="#fff" style="fill: var(--color1, #fff)" d="M12.533 26.667c-0.295 0-0.533 0.239-0.533 0.533v2.133c0 0.295 0.239 0.533 0.533 0.533s0.533-0.239 0.533-0.533v-2.133c0-0.295-0.239-0.533-0.533-0.533z"></path>
<path fill="#fff" style="fill: var(--color1, #fff)" d="M18.933 24.533c-0.295 0-0.533 0.239-0.533 0.533v2.133c0 0.295 0.239 0.533 0.533 0.533s0.533-0.239 0.533-0.533v-2.133c0-0.295-0.239-0.533-0.533-0.533z"></path>
<path fill="#fff" style="fill: var(--color1, #fff)" d="M14.667 24.533c-0.295 0-0.533 0.239-0.533 0.533v2.133c0 0.295 0.239 0.533 0.533 0.533s0.533-0.239 0.533-0.533v-2.133c0-0.295-0.239-0.533-0.533-0.533z"></path>
<path fill="#fff" style="fill: var(--color1, #fff)" d="M10.4 24.533c-0.295 0-0.533 0.239-0.533 0.533v2.133c0 0.295 0.239 0.533 0.533 0.533s0.533-0.239 0.533-0.533v-2.133c0-0.295-0.239-0.533-0.533-0.533z"></path>
<path fill="#fff" style="fill: var(--color1, #fff)" d="M6.133 24.533c-0.295 0-0.533 0.239-0.533 0.533v2.133c0 0.295 0.239 0.533 0.533 0.533s0.533-0.239 0.533-0.533v-2.133c0-0.295-0.239-0.533-0.533-0.533z"></path>
<path fill="#fff" style="fill: var(--color1, #fff)" d="M8.267 22.4c-0.295 0-0.533 0.239-0.533 0.533v2.133c0 0.295 0.239 0.533 0.533 0.533s0.533-0.239 0.533-0.533v-2.133c0-0.295-0.239-0.533-0.533-0.533z"></path>
<path fill="#fff" style="fill: var(--color1, #fff)" d="M16.8 22.4c-0.295 0-0.533 0.239-0.533 0.533v2.133c0 0.295 0.239 0.533 0.533 0.533s0.533-0.239 0.533-0.533v-2.133c0-0.295-0.239-0.533-0.533-0.533z"></path>
<path fill="#fff" style="fill: var(--color1, #fff)" d="M16.8 26.667c-0.295 0-0.533 0.239-0.533 0.533v2.133c0 0.295 0.239 0.533 0.533 0.533s0.533-0.239 0.533-0.533v-2.133c0-0.295-0.239-0.533-0.533-0.533z"></path>
<path fill="#fff" style="fill: var(--color1, #fff)" d="M8.267 26.667c-0.295 0-0.533 0.239-0.533 0.533v2.133c0 0.295 0.239 0.533 0.533 0.533s0.533-0.239 0.533-0.533v-2.133c0-0.295-0.239-0.533-0.533-0.533z"></path>
<path fill="#fff" style="fill: var(--color1, #fff)" d="M10.4 28.8c-0.295 0-0.533 0.239-0.533 0.533v2.133c0 0.295 0.239 0.533 0.533 0.533s0.533-0.239 0.533-0.533v-2.133c0-0.295-0.239-0.533-0.533-0.533z"></path>
<path fill="#fff" style="fill: var(--color1, #fff)" d="M14.667 28.8c-0.295 0-0.533 0.239-0.533 0.533v2.133c0 0.295 0.239 0.533 0.533 0.533s0.533-0.239 0.533-0.533v-2.133c0-0.295-0.239-0.533-0.533-0.533z"></path>
</symbol>
<symbol id="icon-temperature" viewBox="0 0 32 32">
<path fill="#fff" style="fill: var(--color1, #fff)" d="M14 32c-4.044 0-7.333-3.291-7.333-7.333 0-2.179 0.991-4.268 2.667-5.656v-14.344c0-2.573 2.093-4.667 4.667-4.667s4.667 2.093 4.667 4.667v14.344c1.676 1.388 2.667 3.477 2.667 5.656 0 4.043-3.289 7.333-7.333 7.333zM14 1.333c-1.837 0-3.333 1.496-3.333 3.333v14.667c0 0.209-0.099 0.407-0.265 0.532-1.504 1.132-2.401 2.927-2.401 4.801 0 3.308 2.692 6 6 6s6-2.692 6-6c0-1.875-0.897-3.669-2.401-4.801-0.167-0.125-0.265-0.323-0.265-0.532v-14.667c0-1.837-1.496-3.333-3.333-3.333z"></path>
<path fill="#fff" style="fill: var(--color1, #fff)" d="M14 28c-1.837 0-3.333-1.495-3.333-3.333s1.496-3.333 3.333-3.333c1.837 0 3.333 1.495 3.333 3.333s-1.496 3.333-3.333 3.333zM14 22.667c-1.103 0-2 0.897-2 2s0.897 2 2 2c1.103 0 2-0.897 2-2s-0.897-2-2-2z"></path>
<path fill="#fff" style="fill: var(--color1, #fff)" d="M14 22.667c-0.368 0-0.667-0.299-0.667-0.667v-14.667c0-0.368 0.299-0.667 0.667-0.667s0.667 0.299 0.667 0.667v14.667c0 0.368-0.299 0.667-0.667 0.667z"></path>
<path fill="#fff" style="fill: var(--color1, #fff)" d="M24.667 5.333h-2.667c-0.368 0-0.667-0.299-0.667-0.667s0.299-0.667 0.667-0.667h2.667c0.368 0 0.667 0.299 0.667 0.667s-0.299 0.667-0.667 0.667z"></path>
<path fill="#fff" style="fill: var(--color1, #fff)" d="M24.667 10.667h-2.667c-0.368 0-0.667-0.299-0.667-0.667s0.299-0.667 0.667-0.667h2.667c0.368 0 0.667 0.299 0.667 0.667s-0.299 0.667-0.667 0.667z"></path>
<path fill="#fff" style="fill: var(--color1, #fff)" d="M24.667 16h-2.667c-0.368 0-0.667-0.299-0.667-0.667s0.299-0.667 0.667-0.667h2.667c0.368 0 0.667 0.299 0.667 0.667s-0.299 0.667-0.667 0.667z"></path>
</symbol>
<symbol id="icon-toilet" viewBox="0 0 32 32">
<path fill="#fff" style="fill: var(--color1, #fff)" d="M22.933 14.933h-0.533v-1.067h0.533c0.884 0 1.6-0.716 1.6-1.6v-9.165c0.832-0.293 1.268-1.204 0.975-2.036-0.225-0.64-0.83-1.067-1.509-1.066h-16c-0.882-0.002-1.598 0.712-1.599 1.593-0.001 0.678 0.426 1.283 1.066 1.509v9.165c0 0.884 0.716 1.6 1.6 1.6h0.533v1.067h-0.533c-1.472 0.002-2.665 1.195-2.667 2.667 0 0.295 0.239 0.533 0.533 0.533-0.010 3.564 2.080 6.799 5.333 8.254v5.079c0 0.294 0.239 0.533 0.533 0.533h6.4c0.295 0 0.533-0.239 0.533-0.533v-5.079c3.253-1.456 5.343-4.691 5.333-8.254 0.295 0 0.533-0.239 0.533-0.533-0.002-1.472-1.195-2.665-2.667-2.667zM7.467 1.6c0-0.295 0.239-0.533 0.533-0.533h16c0.295 0 0.533 0.239 0.533 0.533s-0.239 0.533-0.533 0.533h-16c-0.295 0-0.533-0.239-0.533-0.533zM9.067 12.8c-0.295 0-0.533-0.239-0.533-0.533v-9.067h14.933v9.067c0 0.295-0.239 0.533-0.533 0.533h-13.867zM21.333 13.867v1.067h-10.667v-1.067h10.667zM13.333 30.933v-4.132l0.050 0.013c0.053 0.016 0.107 0.028 0.16 0.043 0.195 0.055 0.392 0.104 0.591 0.146 0.095 0.020 0.191 0.037 0.287 0.053 0.165 0.029 0.331 0.053 0.498 0.072 0.101 0.012 0.202 0.025 0.304 0.034 0.217 0.018 0.435 0.028 0.653 0.031 0.041 0 0.080 0.006 0.121 0.006s0.081-0.005 0.121-0.006c0.218-0.002 0.436-0.013 0.653-0.031 0.102-0.009 0.204-0.022 0.306-0.034 0.165-0.020 0.33-0.043 0.493-0.072 0.098-0.017 0.195-0.035 0.292-0.053 0.194-0.040 0.386-0.089 0.576-0.142 0.059-0.017 0.119-0.030 0.179-0.047 0.015-0.005 0.032-0.008 0.047-0.013l0.003 4.131h-5.333zM18.997 25.549c-1.436 0.579-3.008 0.73-4.527 0.436-0.504-0.097-0.996-0.244-1.47-0.438-3.028-1.213-5.010-4.152-4.999-7.414h16c0.010 3.264-1.973 6.203-5.003 7.416zM7.558 17.067c0.227-0.639 0.831-1.066 1.509-1.067h13.867c0.678 0.001 1.282 0.428 1.509 1.067h-16.884z"></path>
<path fill="#fff" style="fill: var(--color1, #fff)" d="M13.867 4.8h-1.698c-0.295-0.833-1.209-1.27-2.042-0.975s-1.27 1.209-0.975 2.042 1.209 1.27 2.042 0.975c0.456-0.161 0.814-0.519 0.975-0.975h1.698c0.295 0 0.533-0.239 0.533-0.533s-0.239-0.533-0.533-0.533zM10.667 5.867c-0.295 0-0.533-0.239-0.533-0.533s0.239-0.533 0.533-0.533 0.533 0.239 0.533 0.533c0 0.295-0.239 0.533-0.533 0.533z"></path>
</symbol>
<symbol id="icon-towels" viewBox="0 0 32 32">
<path fill="#fff" style="fill: var(--color1, #fff)" d="M32 9.066c-0.002-2.061-1.672-3.731-3.733-3.733h-16c-0.327-0.001-0.653 0.044-0.969 0.133-0.199 0.048-5.468 2.034-8.59 3.213h-0.004c-0.609 0.17-1.162 0.495-1.607 0.945-0.706 0.698-1.101 1.65-1.097 2.643 0.001 1.312 0.691 2.527 1.818 3.2-1.126 0.673-1.816 1.888-1.818 3.2 0.002 1.313 0.693 2.527 1.82 3.2-1.442 0.86-2.132 2.577-1.686 4.196s1.92 2.739 3.599 2.738h16c0.552-0 1.096-0.124 1.594-0.363 0.004 0 0.008 0 0.012 0l8.581-3.223c1.225-0.604 2.022-1.83 2.076-3.195s-0.644-2.65-1.818-3.348c0.266-0.154 0.51-0.344 0.725-0.564 0.706-0.697 1.102-1.649 1.098-2.641-0.005-1.311-0.695-2.523-1.819-3.197 0.265-0.154 0.508-0.343 0.722-0.563 0.706-0.697 1.101-1.649 1.097-2.641zM11.592 6.491c0.22-0.061 0.447-0.092 0.675-0.091h16c1.472 0.002 2.665 1.195 2.667 2.667 0.003 0.708-0.279 1.387-0.782 1.884-0.181 0.189-0.393 0.345-0.627 0.462-0.029 0.015-0.053 0.030-0.081 0.044-0.719 0.267-1.986 0.742-3.949 1.479l-2.37 0.89c0.533-1.156 0.44-2.503-0.246-3.574s-1.872-1.719-3.144-1.718h-13.615c2.655-1 5.257-1.973 5.474-2.042zM1.067 12.267c-0.003-0.709 0.28-1.389 0.785-1.887 0.322-0.327 0.727-0.562 1.171-0.68 0.013-0.004 0.029-0.009 0.044-0.015 0.218-0.057 0.442-0.086 0.667-0.085h16c1.472 0.002 2.665 1.195 2.667 2.667-0.004 0.998-0.561 1.911-1.446 2.372-0.016 0.006-0.031 0.013-0.046 0.020-0.365 0.182-0.767 0.277-1.175 0.275h-16c-1.472-0.002-2.665-1.195-2.667-2.667zM1.067 18.666c0.003-1.472 1.195-2.664 2.667-2.667h16c1.472 0.002 2.665 1.195 2.667 2.667-0.004 0.998-0.561 1.911-1.446 2.372-0.016 0.006-0.031 0.013-0.046 0.020-0.365 0.182-0.767 0.277-1.175 0.275h-16c-1.472-0.002-2.665-1.195-2.667-2.667zM3.733 27.733c-1.473 0-2.667-1.194-2.667-2.667s1.194-2.667 2.667-2.667h16c1.473 0 2.667 1.194 2.667 2.667s-1.194 2.667-2.667 2.667h-16zM30.933 21.866c0.003 0.708-0.279 1.387-0.782 1.884-0.192 0.194-0.412 0.358-0.653 0.485l-6.378 2.392c0.795-1.708 0.185-3.74-1.419-4.729l7.040-2.641c1.265 0.226 2.188 1.323 2.193 2.608zM30.933 15.466c0.003 0.708-0.279 1.387-0.782 1.884-0.181 0.189-0.393 0.345-0.627 0.462-0.029 0.016-0.057 0.030-0.082 0.044l-6.319 2.37c0.79-1.709 0.179-3.738-1.422-4.727l4.166-1.565c1.217-0.457 2.163-0.812 2.88-1.081 1.263 0.231 2.181 1.329 2.187 2.612z"></path>
<path fill="#fff" style="fill: var(--color1, #fff)" d="M20.8 12.267c0-0.295-0.239-0.533-0.533-0.533h-17.067c-0.295 0-0.533 0.239-0.533 0.533s0.239 0.533 0.533 0.533h17.067c0.295 0 0.533-0.239 0.533-0.533z"></path>
<path fill="#fff" style="fill: var(--color1, #fff)" d="M20.8 18.667c0-0.295-0.239-0.533-0.533-0.533h-17.067c-0.295 0-0.533 0.239-0.533 0.533s0.239 0.533 0.533 0.533h17.067c0.295 0 0.533-0.239 0.533-0.533z"></path>
<path fill="#fff" style="fill: var(--color1, #fff)" d="M20.267 24.533h-17.067c-0.295 0-0.533 0.239-0.533 0.533s0.239 0.533 0.533 0.533h17.067c0.295 0 0.533-0.239 0.533-0.533s-0.239-0.533-0.533-0.533z"></path>
<path fill="#fff" style="fill: var(--color1, #fff)" d="M5.333 1.067c-0.295 0-0.533 0.239-0.533 0.533v1.067c0 0.295 0.239 0.533 0.533 0.533s0.533-0.239 0.533-0.533v-1.067c0-0.295-0.239-0.533-0.533-0.533z"></path>
<path fill="#fff" style="fill: var(--color1, #fff)" d="M4.8 5.867c0 0.295 0.239 0.533 0.533 0.533s0.533-0.239 0.533-0.533v-1.067c0-0.295-0.239-0.533-0.533-0.533s-0.533 0.239-0.533 0.533v1.067z"></path>
<path fill="#fff" style="fill: var(--color1, #fff)" d="M4.267 3.2h-1.067c-0.295 0-0.533 0.239-0.533 0.533s0.239 0.533 0.533 0.533h1.067c0.295 0 0.533-0.239 0.533-0.533s-0.239-0.533-0.533-0.533z"></path>
<path fill="#fff" style="fill: var(--color1, #fff)" d="M6.4 4.267h1.067c0.295 0 0.533-0.239 0.533-0.533s-0.239-0.533-0.533-0.533h-1.067c-0.295 0-0.533 0.239-0.533 0.533s0.239 0.533 0.533 0.533z"></path>
<path fill="#fff" style="fill: var(--color1, #fff)" d="M31.044 29.223c-0.209-0.202-0.542-0.199-0.748 0.006s-0.209 0.538-0.006 0.748l0.8 0.8c0.209 0.202 0.542 0.199 0.748-0.007s0.209-0.538 0.006-0.748l-0.8-0.8z"></path>
<path fill="#fff" style="fill: var(--color1, #fff)" d="M28.69 28.377c0.209 0.202 0.542 0.199 0.748-0.006s0.209-0.538 0.006-0.748l-0.8-0.8c-0.209-0.202-0.542-0.199-0.748 0.006s-0.209 0.538-0.006 0.748l0.8 0.8z"></path>
<path fill="#fff" style="fill: var(--color1, #fff)" d="M27.89 30.777c0.208 0.208 0.546 0.208 0.754 0l0.8-0.8c0.202-0.209 0.199-0.542-0.006-0.748s-0.538-0.209-0.748-0.006l-0.8 0.8c-0.208 0.208-0.208 0.546 0 0.754z"></path>
<path fill="#fff" style="fill: var(--color1, #fff)" d="M31.090 26.823l-0.8 0.8c-0.139 0.134-0.194 0.332-0.145 0.519s0.194 0.332 0.381 0.381 0.385-0.007 0.519-0.145l0.8-0.8c0.202-0.209 0.199-0.542-0.007-0.748s-0.538-0.209-0.748-0.006z"></path>
</symbol>
<symbol id="icon-trees" viewBox="0 0 32 32">
<path fill="#fff" style="fill: var(--color1, #fff)" d="M32 14.934c0.001-1.406-0.616-2.742-1.687-3.654 0.408-0.666 0.623-1.432 0.62-2.213-0.003-2.163-1.622-3.983-3.771-4.238 0.025-0.186 0.038-0.374 0.037-0.562 0.006-2.351-1.896-4.261-4.247-4.267-1.383-0.003-2.682 0.666-3.482 1.794-1.358-1.917-4.013-2.369-5.929-1.011-0.392 0.278-0.734 0.62-1.011 1.011-1.366-1.916-4.026-2.362-5.942-0.997-1.285 0.916-1.958 2.467-1.75 4.031-2.148 0.254-3.768 2.074-3.771 4.238-0.003 0.781 0.212 1.547 0.62 2.213-2.018 1.719-2.259 4.749-0.54 6.767 0.165 0.194 0.346 0.375 0.54 0.54-0.408 0.666-0.623 1.433-0.62 2.214 0.003 2.355 1.911 4.264 4.267 4.267h3.2v5.867h-1.6c-0.295 0-0.533 0.239-0.533 0.533s0.239 0.533 0.533 0.533h18.133c0.295 0 0.533-0.239 0.533-0.533s-0.239-0.533-0.533-0.533h-1.6v-5.867h3.2c2.355-0.003 4.264-1.911 4.267-4.267 0.003-0.781-0.212-1.547-0.62-2.213 1.071-0.912 1.687-2.247 1.687-3.654zM5.334 23.995c-1.765-0.002-3.196-1.43-3.2-3.195-0.002-0.725 0.245-1.429 0.7-1.994 0.184-0.23 0.146-0.566-0.084-0.75-0.011-0.009-0.023-0.017-0.035-0.025-1.711-1.151-2.165-3.471-1.014-5.181 0.269-0.4 0.613-0.744 1.014-1.014 0.244-0.165 0.309-0.496 0.144-0.74-0.008-0.012-0.016-0.023-0.025-0.035-0.455-0.565-0.702-1.269-0.7-1.994 0.002-1.767 1.433-3.198 3.2-3.2l0.138 0.007c0.172 0.009 0.338-0.069 0.442-0.206 0.106-0.136 0.139-0.315 0.089-0.48-0.5-1.695 0.47-3.474 2.165-3.974 1.507-0.444 3.113 0.271 3.791 1.689 0 0.005 0 0.011-0.004 0.016-0.066 0.2-0.118 0.405-0.154 0.612-0.006 0.036-0.011 0.072-0.017 0.107-0.064 0.394-0.069 0.795-0.014 1.19-2.149 0.255-3.769 2.075-3.771 4.239-0.003 0.781 0.212 1.547 0.62 2.213-0.010 0.009-0.018 0.018-0.027 0.026l-2.483-2.483c-0.212-0.205-0.55-0.199-0.754 0.013-0.2 0.207-0.2 0.534 0 0.741l2.513 2.513c-1.495 2.027-1.167 4.865 0.751 6.497-0.206 0.336-0.363 0.699-0.467 1.078l-1.909-1.909c-0.212-0.205-0.549-0.199-0.754 0.013-0.2 0.207-0.2 0.534 0 0.741l2.522 2.522c0.004 0.074 0.005 0.149 0.013 0.221 0.005 0.050 0.015 0.098 0.022 0.147 0.014 0.099 0.028 0.197 0.049 0.293 0.012 0.058 0.029 0.113 0.044 0.17 0.022 0.085 0.044 0.171 0.071 0.254 0.019 0.059 0.042 0.116 0.064 0.174 0.029 0.078 0.059 0.156 0.093 0.232 0.026 0.058 0.053 0.114 0.082 0.17 0.036 0.073 0.074 0.145 0.114 0.213 0.031 0.053 0.065 0.107 0.099 0.16 0.043 0.068 0.086 0.134 0.133 0.198 0.037 0.053 0.075 0.103 0.115 0.153 0.049 0.063 0.099 0.123 0.151 0.183 0.042 0.048 0.085 0.095 0.129 0.141 0.053 0.058 0.113 0.113 0.171 0.167 0.029 0.028 0.057 0.059 0.087 0.085h-4.114zM15.467 30.933h-5.867v-5.867h5.867v5.867zM16 6.934c-0.295 0-0.533 0.239-0.533 0.533v3.779l-2.423-2.423c-0.212-0.205-0.55-0.199-0.754 0.013-0.2 0.207-0.2 0.534 0 0.741l3.177 3.177v7.292l-2.29-2.29c-0.212-0.205-0.55-0.199-0.754 0.013-0.2 0.207-0.2 0.534 0 0.741l3.044 3.044v2.446h-3.2c-1.767-0.002-3.198-1.433-3.2-3.2-0.002-0.725 0.245-1.429 0.7-1.994 0.184-0.23 0.146-0.566-0.084-0.75-0.011-0.009-0.023-0.017-0.035-0.025-1.711-1.151-2.165-3.471-1.014-5.181 0.269-0.4 0.614-0.744 1.014-1.014 0.244-0.165 0.309-0.496 0.144-0.74-0.008-0.012-0.016-0.023-0.025-0.035-0.455-0.565-0.702-1.269-0.7-1.994 0.002-1.767 1.433-3.198 3.2-3.2l0.138 0.007c0.173 0.010 0.339-0.068 0.442-0.206 0.106-0.136 0.139-0.315 0.089-0.48-0.090-0.299-0.136-0.609-0.136-0.921 0-0.197 0.019-0.393 0.056-0.587 0-0.007 0-0.015 0.003-0.023 0.039-0.193 0.095-0.381 0.167-0.564 0.482-1.222 1.661-2.025 2.974-2.027 1.313 0.001 2.492 0.805 2.974 2.027 0.073 0.184 0.128 0.374 0.167 0.567 0 0.007 0 0.015 0.003 0.023 0.037 0.192 0.055 0.387 0.056 0.583-0 0.312-0.046 0.622-0.136 0.921-0.050 0.165-0.017 0.344 0.089 0.48 0.104 0.138 0.27 0.215 0.442 0.206l0.138-0.007c1.767 0.002 3.198 1.433 3.2 3.2 0.002 0.725-0.245 1.429-0.7 1.994-0.184 0.23-0.146 0.566 0.084 0.75 0.011 0.009 0.023 0.017 0.035 0.025 1.711 1.151 2.165 3.471 1.014 5.181-0.269 0.4-0.613 0.744-1.014 1.014-0.244 0.165-0.309 0.496-0.144 0.74 0.008 0.012 0.016 0.023 0.025 0.035 0.455 0.565 0.702 1.269 0.7 1.994-0.002 1.767-1.433 3.198-3.2 3.2h-3.2v-7.283c0.040-0.020 0.077-0.044 0.11-0.074l3.467-3.467c0.205-0.212 0.199-0.55-0.013-0.754-0.207-0.2-0.534-0.2-0.741 0l-2.823 2.823v-7.779c0-0.295-0.239-0.533-0.533-0.533zM22.4 30.933h-5.867v-5.867h5.867v5.867zM29.141 18.772c0.008 0.012 0.016 0.023 0.025 0.035 0.455 0.565 0.702 1.269 0.7 1.994-0.002 1.767-1.433 3.198-3.2 3.2h-4.114c0.030-0.027 0.058-0.058 0.087-0.085 0.059-0.053 0.116-0.109 0.171-0.167 0.044-0.046 0.086-0.093 0.128-0.141 0.053-0.060 0.103-0.12 0.151-0.183 0.039-0.050 0.078-0.101 0.115-0.153 0.046-0.064 0.090-0.131 0.133-0.198 0.034-0.053 0.068-0.107 0.099-0.16 0.040-0.070 0.077-0.142 0.114-0.213 0.028-0.056 0.053-0.112 0.082-0.17 0.034-0.076 0.063-0.154 0.093-0.232 0.022-0.058 0.045-0.115 0.064-0.174 0.027-0.083 0.049-0.169 0.071-0.254 0.014-0.057 0.032-0.112 0.044-0.17 0.021-0.097 0.035-0.195 0.049-0.293 0.007-0.049 0.017-0.097 0.022-0.147 0.017-0.152 0.025-0.305 0.025-0.459 0.003-0.781-0.212-1.547-0.62-2.213 1.007-0.86 1.613-2.098 1.674-3.42l1.99-1.99c0.205-0.212 0.199-0.55-0.013-0.754-0.207-0.2-0.534-0.2-0.741 0l-1.366 1.366c-0.239-0.977-0.779-1.854-1.544-2.507 0.409-0.666 0.623-1.434 0.62-2.215-0.003-2.163-1.622-3.983-3.771-4.238 0.054-0.395 0.048-0.796-0.016-1.19-0.005-0.036-0.010-0.073-0.017-0.107-0.036-0.208-0.087-0.412-0.154-0.612 0-0.005 0-0.011-0.004-0.016 0.763-1.594 2.673-2.269 4.267-1.506 1.417 0.678 2.133 2.284 1.689 3.791-0.050 0.165-0.017 0.344 0.089 0.48 0.104 0.138 0.27 0.215 0.442 0.206l0.14-0.009c1.767 0.002 3.198 1.433 3.2 3.2 0.002 0.725-0.245 1.429-0.7 1.994-0.184 0.23-0.146 0.566 0.084 0.75 0.011 0.009 0.023 0.017 0.035 0.025 1.711 1.151 2.165 3.471 1.014 5.181-0.269 0.4-0.613 0.744-1.014 1.014-0.244 0.165-0.309 0.496-0.144 0.74z"></path>
</symbol>
<symbol id="icon-twitter" viewBox="0 0 39 32">
<path d="M37.415 3.592c-1.373 0.609-2.85 1.021-4.399 1.205 1.582-0.948 2.796-2.447 3.368-4.237-1.48 0.878-3.12 1.515-4.864 1.858-1.397-1.488-3.388-2.418-5.592-2.418-4.229 0-7.659 3.43-7.659 7.659 0 0.6 0.068 1.185 0.199 1.746-6.366-0.319-12.010-3.368-15.788-8.004-0.659 1.131-1.037 2.448-1.037 3.851 0 2.657 1.353 5.002 3.407 6.375-1.255-0.039-2.437-0.384-3.469-0.959-0.001 0.033-0.001 0.065-0.001 0.097 0 3.711 2.641 6.807 6.145 7.51-0.642 0.176-1.32 0.269-2.018 0.269-0.495 0-0.974-0.047-1.441-0.137 0.974 3.042 3.803 5.257 7.155 5.319-2.622 2.055-5.924 3.279-9.514 3.279-0.617 0-1.228-0.036-1.826-0.107 3.388 2.174 7.415 3.441 11.74 3.441 14.088 0 21.793-11.671 21.793-21.793 0-0.332-0.007-0.663-0.022-0.99 1.498-1.080 2.796-2.428 3.823-3.964z"></path>
</symbol>
<symbol id="icon-visa" viewBox="0 0 32 32">
<path fill="#e9ece0" style="fill: var(--color3, #e9ece0)" d="M12.769 11.199l-1.621 9.511h2.592l1.622-9.511h-2.593z"></path>
<path fill="#e9ece0" style="fill: var(--color3, #e9ece0)" d="M8.975 11.21l-2.539 6.486-0.271-0.979c-0.501-1.18-1.922-2.875-3.591-3.943l2.321 7.931 2.743-0.005 4.082-9.493-2.746 0.002z"></path>
<path fill="#e9ece0" style="fill: var(--color3, #e9ece0)" d="M5.181 11.891c-0.151-0.579-0.587-0.752-1.129-0.773h-4.019l-0.033 0.189c3.127 0.759 5.197 2.587 6.055 4.785l-0.874-4.201z"></path>
<path fill="#e9ece0" style="fill: var(--color3, #e9ece0)" d="M20.615 13.023c0.848-0.013 1.463 0.172 1.94 0.364l0.234 0.11 0.351-2.061c-0.513-0.193-1.318-0.399-2.322-0.399-2.561 0-4.367 1.29-4.381 3.139-0.017 1.366 1.286 2.129 2.27 2.584 1.010 0.467 1.349 0.763 1.344 1.18-0.008 0.637-0.805 0.929-1.55 0.929-1.038 0-1.589-0.143-2.441-0.498l-0.334-0.152-0.365 2.129c0.607 0.266 1.726 0.495 2.888 0.507 2.725 0 4.495-1.275 4.514-3.25 0.011-1.081-0.68-1.905-2.178-2.582-0.907-0.441-1.461-0.735-1.456-1.18 0-0.395 0.471-0.818 1.485-0.818z"></path>
<path fill="#e9ece0" style="fill: var(--color3, #e9ece0)" d="M29.792 11.21h-2.003c-0.622 0-1.085 0.169-1.358 0.789l-3.849 8.716h2.722c0 0 0.444-1.172 0.545-1.429 0.298 0 2.943 0.004 3.319 0.004 0.077 0.332 0.316 1.425 0.316 1.425h2.405l-2.097-9.505zM26.595 17.34c0.213-0.546 1.033-2.658 1.033-2.658-0.014 0.026 0.211-0.55 0.345-0.908l0.175 0.82c0 0 0.497 2.271 0.601 2.746h-2.153z"></path>
</symbol>
<symbol id="icon-wifi" viewBox="0 0 32 32">
<path fill="#fff" style="fill: var(--color1, #fff)" d="M22.199 18.734c-1.659-1.598-3.849-2.478-6.167-2.478s-4.509 0.88-6.168 2.478c-0.306 0.295-0.593 0.613-0.852 0.946-0.608 0.781-0.535 1.901 0.169 2.608 0.001 0.001 0.002 0.002 0.004 0.004 0.374 0.374 0.87 0.579 1.397 0.579 0.619 0 1.195-0.281 1.58-0.771 0.121-0.154 0.252-0.302 0.392-0.441 0.927-0.927 2.163-1.438 3.48-1.438s2.553 0.511 3.48 1.438c0.139 0.139 0.271 0.287 0.392 0.441 0.385 0.49 0.961 0.771 1.58 0.771h0c0.527 0 1.023-0.206 1.396-0.579 0.001-0.001 0.003-0.002 0.004-0.004 0.704-0.707 0.776-1.828 0.168-2.608-0.26-0.333-0.546-0.652-0.853-0.947zM22.215 21.629c-0.001 0.001-0.002 0.002-0.003 0.003-0.196 0.194-0.455 0.302-0.73 0.302-0.329 0-0.635-0.15-0.841-0.412-0.144-0.183-0.301-0.36-0.466-0.525-1.104-1.105-2.576-1.713-4.144-1.713s-3.040 0.608-4.144 1.713c-0.166 0.166-0.322 0.342-0.466 0.525-0.206 0.262-0.512 0.412-0.841 0.412-0.275 0-0.534-0.107-0.73-0.302-0.001-0.001-0.002-0.002-0.003-0.003-0.373-0.373-0.413-0.962-0.095-1.371 0.232-0.298 0.489-0.583 0.763-0.847 1.483-1.429 3.442-2.215 5.516-2.215s4.033 0.786 5.516 2.215c0.274 0.264 0.531 0.549 0.763 0.848 0.319 0.409 0.278 0.998-0.095 1.371z"></path>
<path fill="#fff" style="fill: var(--color1, #fff)" d="M16.031 22.312c-0.756 0-1.466 0.294-2.001 0.829s-0.829 1.245-0.829 2c0 0.756 0.294 1.466 0.829 2s1.245 0.829 2.001 0.829 1.466-0.294 2-0.829c1.103-1.103 1.103-2.898 0-4.001-0.534-0.534-1.245-0.829-2-0.829zM17.367 26.477c-0.357 0.357-0.831 0.554-1.336 0.554s-0.979-0.197-1.336-0.554c-0.357-0.357-0.554-0.831-0.554-1.336s0.197-0.979 0.554-1.336c0.357-0.357 0.832-0.554 1.336-0.554s0.979 0.197 1.336 0.554c0.737 0.737 0.737 1.936 0 2.672z"></path>
<path fill="#fff" style="fill: var(--color1, #fff)" d="M31.544 10.956c-0.21-0.23-0.429-0.459-0.651-0.681-3.056-3.055-6.902-5.073-11.122-5.836-4.124-0.745-8.328-0.252-12.157 1.425-0.238 0.104-0.346 0.381-0.242 0.619s0.381 0.346 0.619 0.242c7.612-3.336 16.341-1.681 22.238 4.215 0.212 0.212 0.422 0.431 0.623 0.651 0.376 0.411 0.359 1.043-0.038 1.44-0.205 0.204-0.477 0.315-0.766 0.307-0.285-0.006-0.548-0.125-0.74-0.335-0.18-0.197-0.368-0.393-0.557-0.582-3.39-3.39-7.907-5.256-12.719-5.256-0 0-0.001 0-0.001 0-4.813 0-9.331 1.868-12.72 5.258-0.189 0.19-0.376 0.385-0.555 0.58-0.192 0.21-0.454 0.329-0.74 0.335-0.291 0.007-0.561-0.103-0.766-0.307-0.397-0.397-0.414-1.030-0.038-1.44 0.2-0.219 0.409-0.437 0.621-0.649 1.374-1.374 2.924-2.536 4.609-3.456 0.228-0.124 0.312-0.41 0.187-0.637s-0.41-0.312-0.637-0.187c-1.763 0.962-3.386 2.179-4.823 3.616-0.221 0.222-0.44 0.45-0.65 0.679-0.716 0.782-0.687 1.985 0.067 2.739 0.377 0.377 0.874 0.583 1.405 0.583 0.015 0 0.030-0 0.046-0.001 0.544-0.012 1.046-0.239 1.412-0.64 0.17-0.186 0.347-0.371 0.526-0.55 3.212-3.213 7.493-4.982 12.056-4.983h0.001c4.562 0 8.843 1.769 12.055 4.981 0.18 0.18 0.357 0.365 0.528 0.552 0.366 0.4 0.868 0.628 1.412 0.64 0.542 0.012 1.069-0.2 1.451-0.582 0.753-0.753 0.783-1.956 0.066-2.739z"></path>
<path fill="#fff" style="fill: var(--color1, #fff)" d="M26.345 14.309c-2.545-2.426-5.886-3.877-9.409-4.087-0.259-0.015-0.481 0.182-0.497 0.441s0.182 0.481 0.441 0.497c3.302 0.197 6.433 1.556 8.817 3.829 0.302 0.288 0.594 0.591 0.867 0.902 0.365 0.415 0.345 1.044-0.044 1.434-0.206 0.206-0.479 0.314-0.771 0.305-0.294-0.009-0.563-0.136-0.757-0.358-0.214-0.244-0.442-0.482-0.676-0.708-2.226-2.151-5.168-3.336-8.284-3.336h-0c-3.115 0-6.057 1.185-8.283 3.336-0.235 0.227-0.462 0.465-0.677 0.709-0.195 0.222-0.464 0.349-0.757 0.358-0.291 0.010-0.565-0.099-0.771-0.305-0.389-0.389-0.411-1.016-0.050-1.427 0.183-0.208 0.374-0.414 0.569-0.611 2.425-2.453 5.664-3.918 9.122-4.126 0.259-0.016 0.456-0.238 0.441-0.497s-0.238-0.457-0.497-0.441c-3.689 0.222-7.145 1.786-9.733 4.404-0.208 0.21-0.412 0.43-0.607 0.651-0.687 0.782-0.647 1.973 0.091 2.711 0.376 0.376 0.871 0.581 1.4 0.581 0.022 0 0.044-0 0.066-0.001 0.548-0.018 1.070-0.264 1.432-0.677 0.197-0.225 0.407-0.445 0.624-0.654 4.208-4.066 11.054-4.066 15.262 0 0.216 0.209 0.426 0.428 0.623 0.653 0.363 0.412 0.885 0.659 1.433 0.677 0.554 0.018 1.074-0.188 1.465-0.58 0.739-0.739 0.776-1.933 0.085-2.718-0.292-0.331-0.602-0.655-0.924-0.962z"></path>
</symbol>
</defs>
</svg>
